<svg width="751" height="500" viewBox="0 0 751 500" fill="none" xmlns="http://www.w3.org/2000/svg">
<g clip-path="url(#clip0_1_9475)">
<path d="M674.23 333.61H493.5C491.947 333.607 490.458 332.989 489.359 331.891C488.261 330.792 487.643 329.303 487.64 327.75V64.47C487.643 62.9166 488.261 61.4276 489.359 60.3293C490.458 59.2309 491.947 58.6126 493.5 58.61H674.23C675.785 58.61 677.277 59.2271 678.377 60.3257C679.478 61.4244 680.097 62.9149 680.1 64.47V327.75C680.097 329.305 679.478 330.796 678.377 331.894C677.277 332.993 675.785 333.61 674.23 333.61ZM493.5 58.86C492.012 58.86 490.585 59.451 489.533 60.5031C488.481 61.5552 487.89 62.9821 487.89 64.47V327.75C487.89 329.238 488.481 330.665 489.533 331.717C490.585 332.769 492.012 333.36 493.5 333.36H674.23C675.719 333.36 677.147 332.769 678.2 331.717C679.254 330.666 679.847 329.239 679.85 327.75V64.47C679.847 62.9812 679.254 61.5543 678.2 60.5025C677.147 59.4507 675.719 58.86 674.23 58.86H493.5Z" fill="#E0E0E0"/>
<path d="M465.81 333.61H285.06C283.507 333.607 282.018 332.989 280.919 331.891C279.821 330.792 279.203 329.303 279.2 327.75V64.47C279.203 62.9166 279.821 61.4276 280.919 60.3293C282.018 59.2309 283.507 58.6126 285.06 58.61H465.81C467.363 58.6126 468.852 59.2309 469.951 60.3293C471.049 61.4276 471.667 62.9166 471.67 64.47V327.75C471.667 329.303 471.049 330.792 469.951 331.891C468.852 332.989 467.363 333.607 465.81 333.61ZM285.06 58.86C283.582 58.8758 282.169 59.4735 281.128 60.5236C280.088 61.5736 279.503 62.9915 279.5 64.47V327.75C279.503 329.237 280.095 330.662 281.146 331.714C282.198 332.765 283.623 333.357 285.11 333.36H465.81C467.297 333.357 468.722 332.765 469.774 331.714C470.825 330.662 471.417 329.237 471.42 327.75V64.47C471.417 62.9829 470.825 61.5575 469.774 60.506C468.722 59.4545 467.297 58.8626 465.81 58.86H285.06Z" fill="#E0E0E0"/>
<path d="M257.5 333.61H76.77C75.2149 333.61 73.7234 332.993 72.6228 331.894C71.5223 330.796 70.9027 329.305 70.9 327.75V64.47C70.9027 62.9149 71.5223 61.4244 72.6228 60.3257C73.7234 59.2271 75.2149 58.61 76.77 58.61H257.5C259.053 58.6126 260.542 59.2309 261.641 60.3293C262.739 61.4276 263.357 62.9166 263.36 64.47V327.75C263.357 329.303 262.739 330.792 261.641 331.891C260.542 332.989 259.053 333.607 257.5 333.61ZM76.77 58.86C75.2812 58.86 73.8533 59.4507 72.7996 60.5025C71.7459 61.5543 71.1527 62.9812 71.15 64.47V327.75C71.1527 329.239 71.7459 330.666 72.7996 331.717C73.8533 332.769 75.2812 333.36 76.77 333.36H257.5C258.988 333.36 260.415 332.769 261.467 331.717C262.519 330.665 263.11 329.238 263.11 327.75V64.47C263.11 62.9821 262.519 61.5552 261.467 60.5031C260.415 59.451 258.988 58.86 257.5 58.86H76.77Z" fill="#E0E0E0"/>
<path d="M750.5 394.68H0.5V394.8H750.5V394.68Z" fill="#E0E0E0"/>
<path d="M247.93 121.58C252.616 116.943 258.946 114.35 265.538 114.368C272.13 114.385 278.447 117.011 283.108 121.672C287.769 126.333 290.395 132.65 290.412 139.242C290.43 145.834 287.837 152.164 283.2 156.85L269.11 170.94C268.646 171.406 268.094 171.775 267.486 172.027C266.879 172.279 266.228 172.409 265.57 172.409C264.912 172.409 264.261 172.279 263.654 172.027C263.046 171.775 262.494 171.406 262.03 170.94L247.93 156.84C243.256 152.163 240.63 145.822 240.63 139.21C240.63 132.598 243.256 126.257 247.93 121.58ZM265.57 150.81C267.86 150.81 270.099 150.131 272.004 148.858C273.908 147.586 275.392 145.777 276.269 143.661C277.145 141.546 277.374 139.217 276.927 136.971C276.481 134.725 275.378 132.661 273.758 131.042C272.139 129.422 270.075 128.319 267.829 127.873C265.583 127.426 263.254 127.655 261.139 128.531C259.023 129.408 257.214 130.892 255.942 132.797C254.669 134.701 253.99 136.94 253.99 139.23C253.995 142.298 255.218 145.238 257.389 147.405C259.56 149.573 262.502 150.79 265.57 150.79V150.81Z" fill="#E6E6E6"/>
<path d="M663.08 242.65V195.15H633.67V205.98H614.07V87.31H576.37V134.02H565.06V110.7H535.65V224.44H494.17V184.25H468.17V97.12H436.07V155.21H405.91V280.35H382.54V219.41H358.41V180.2H332.77V150.1L304.17 165.18V245.72H274.01V229.11H233.71V345.84L702.72 346.07V242.65H663.08Z" fill="#EBEBEB"/>
<path d="M360.37 345.91V172.23H328.37V346.07C338.5 345.82 360.37 345.91 360.37 345.91Z" fill="#E6E6E6"/>
<path d="M331.19 346.07V250.55H265.24V345.86L331.19 346.07Z" fill="#FAFAFA"/>
<path d="M411.32 345.93V205.7H373.96V345.91L411.32 345.93Z" fill="#E0E0E0"/>
<path d="M381.33 211.2H376.8V220.54H381.33V211.2Z" fill="#FAFAFA"/>
<path d="M390.38 211.2H385.85V220.54H390.38V211.2Z" fill="#FAFAFA"/>
<path d="M399.44 211.2H394.91V220.54H399.44V211.2Z" fill="#FAFAFA"/>
<path d="M408.5 211.2H403.97V220.54H408.5V211.2Z" fill="#FAFAFA"/>
<path d="M381.33 226.87H376.8V236.21H381.33V226.87Z" fill="#FAFAFA"/>
<path d="M390.38 226.87H385.85V236.21H390.38V226.87Z" fill="#FAFAFA"/>
<path d="M399.44 226.87H394.91V236.21H399.44V226.87Z" fill="#FAFAFA"/>
<path d="M408.5 226.87H403.97V236.21H408.5V226.87Z" fill="#FAFAFA"/>
<path d="M381.33 242.53H376.8V251.87H381.33V242.53Z" fill="#FAFAFA"/>
<path d="M390.38 242.53H385.85V251.87H390.38V242.53Z" fill="#FAFAFA"/>
<path d="M399.44 242.53H394.91V251.87H399.44V242.53Z" fill="#FAFAFA"/>
<path d="M408.5 242.53H403.97V251.87H408.5V242.53Z" fill="#FAFAFA"/>
<path d="M381.33 258.19H376.8V267.53H381.33V258.19Z" fill="#FAFAFA"/>
<path d="M390.38 258.19H385.85V267.53H390.38V258.19Z" fill="#FAFAFA"/>
<path d="M399.44 258.19H394.91V267.53H399.44V258.19Z" fill="#FAFAFA"/>
<path d="M408.5 258.19H403.97V267.53H408.5V258.19Z" fill="#FAFAFA"/>
<path d="M381.33 273.85H376.8V283.19H381.33V273.85Z" fill="#FAFAFA"/>
<path d="M390.38 273.85H385.85V283.19H390.38V273.85Z" fill="#FAFAFA"/>
<path d="M399.44 273.85H394.91V283.19H399.44V273.85Z" fill="#FAFAFA"/>
<path d="M408.5 273.85H403.97V283.19H408.5V273.85Z" fill="#FAFAFA"/>
<path d="M381.33 289.51H376.8V298.85H381.33V289.51Z" fill="#FAFAFA"/>
<path d="M390.38 289.51H385.85V298.85H390.38V289.51Z" fill="#FAFAFA"/>
<path d="M399.44 289.51H394.91V298.85H399.44V289.51Z" fill="#FAFAFA"/>
<path d="M408.5 289.51H403.97V298.85H408.5V289.51Z" fill="#FAFAFA"/>
<path d="M381.33 305.17H376.8V314.51H381.33V305.17Z" fill="#FAFAFA"/>
<path d="M390.38 305.17H385.85V314.51H390.38V305.17Z" fill="#FAFAFA"/>
<path d="M399.44 305.17H394.91V314.51H399.44V305.17Z" fill="#FAFAFA"/>
<path d="M408.5 305.17H403.97V314.51H408.5V305.17Z" fill="#FAFAFA"/>
<path d="M381.33 320.84H376.8V330.18H381.33V320.84Z" fill="#FAFAFA"/>
<path d="M390.38 320.84H385.85V330.18H390.38V320.84Z" fill="#FAFAFA"/>
<path d="M399.44 320.84H394.91V330.18H399.44V320.84Z" fill="#FAFAFA"/>
<path d="M408.5 320.84H403.97V330.18H408.5V320.84Z" fill="#FAFAFA"/>
<path d="M541.15 346V185.73H463.69V346.05C463.69 346.05 540.56 346.07 541.15 346Z" fill="#F5F5F5"/>
<path d="M478.89 192.12H469.5V202.88H478.89V192.12Z" fill="#E6E6E6"/>
<path d="M497.69 192.12H488.3V202.88H497.69V192.12Z" fill="#E6E6E6"/>
<path d="M516.47 192.12H507.08V202.88H516.47V192.12Z" fill="#E6E6E6"/>
<path d="M535.26 192.12H525.87V202.88H535.26V192.12Z" fill="#E6E6E6"/>
<path d="M478.89 210.17H469.5V220.93H478.89V210.17Z" fill="#E6E6E6"/>
<path d="M497.69 210.17H488.3V220.93H497.69V210.17Z" fill="#E6E6E6"/>
<path d="M516.47 210.17H507.08V220.93H516.47V210.17Z" fill="#E6E6E6"/>
<path d="M535.26 210.17H525.87V220.93H535.26V210.17Z" fill="#E6E6E6"/>
<path d="M478.89 228.22H469.5V238.98H478.89V228.22Z" fill="#E6E6E6"/>
<path d="M497.69 228.22H488.3V238.98H497.69V228.22Z" fill="#E6E6E6"/>
<path d="M516.47 228.22H507.08V238.98H516.47V228.22Z" fill="#E6E6E6"/>
<path d="M535.26 228.22H525.87V238.98H535.26V228.22Z" fill="#E6E6E6"/>
<path d="M478.89 246.26H469.5V257.02H478.89V246.26Z" fill="#E6E6E6"/>
<path d="M497.69 246.26H488.3V257.02H497.69V246.26Z" fill="#E6E6E6"/>
<path d="M516.47 246.26H507.08V257.02H516.47V246.26Z" fill="#E6E6E6"/>
<path d="M535.26 246.26H525.87V257.02H535.26V246.26Z" fill="#E6E6E6"/>
<path d="M478.89 264.32H469.5V275.08H478.89V264.32Z" fill="#E6E6E6"/>
<path d="M497.69 264.32H488.3V275.08H497.69V264.32Z" fill="#E6E6E6"/>
<path d="M516.47 264.32H507.08V275.08H516.47V264.32Z" fill="#E6E6E6"/>
<path d="M535.26 264.32H525.87V275.08H535.26V264.32Z" fill="#E6E6E6"/>
<path d="M478.89 282.36H469.5V293.12H478.89V282.36Z" fill="#E6E6E6"/>
<path d="M497.69 282.36H488.3V293.12H497.69V282.36Z" fill="#E6E6E6"/>
<path d="M516.47 282.36H507.08V293.12H516.47V282.36Z" fill="#E6E6E6"/>
<path d="M535.26 282.36H525.87V293.12H535.26V282.36Z" fill="#E6E6E6"/>
<path d="M478.89 300.41H469.5V311.17H478.89V300.41Z" fill="#E6E6E6"/>
<path d="M497.69 300.41H488.3V311.17H497.69V300.41Z" fill="#E6E6E6"/>
<path d="M516.47 300.41H507.08V311.17H516.47V300.41Z" fill="#E6E6E6"/>
<path d="M535.26 300.41H525.87V311.17H535.26V300.41Z" fill="#E6E6E6"/>
<path d="M478.89 318.46H469.5V329.22H478.89V318.46Z" fill="#E6E6E6"/>
<path d="M497.69 318.46H488.3V329.22H497.69V318.46Z" fill="#E6E6E6"/>
<path d="M516.47 318.46H507.08V329.22H516.47V318.46Z" fill="#E6E6E6"/>
<path d="M535.26 318.46H525.87V329.22H535.26V318.46Z" fill="#E6E6E6"/>
<path d="M342.89 184.03H334.24V193.95H342.89V184.03Z" fill="#FAFAFA"/>
<path d="M342.89 200.66H334.24V210.58H342.89V200.66Z" fill="#FAFAFA"/>
<path d="M342.89 217.3H334.24V227.22H342.89V217.3Z" fill="#FAFAFA"/>
<path d="M342.89 233.92H334.24V243.84H342.89V233.92Z" fill="#FAFAFA"/>
<path d="M342.89 250.55H334.24V260.47H342.89V250.55Z" fill="#FAFAFA"/>
<path d="M342.89 267.19H334.24V277.11H342.89V267.19Z" fill="#FAFAFA"/>
<path d="M342.89 283.82H334.24V293.74H342.89V283.82Z" fill="#FAFAFA"/>
<path d="M342.89 300.45H334.24V310.37H342.89V300.45Z" fill="#FAFAFA"/>
<path d="M354.46 184.03H345.81V193.95H354.46V184.03Z" fill="#FAFAFA"/>
<path d="M354.46 200.66H345.81V210.58H354.46V200.66Z" fill="#FAFAFA"/>
<path d="M354.46 217.3H345.81V227.22H354.46V217.3Z" fill="#FAFAFA"/>
<path d="M354.46 233.92H345.81V243.84H354.46V233.92Z" fill="#FAFAFA"/>
<path d="M354.46 250.55H345.81V260.47H354.46V250.55Z" fill="#FAFAFA"/>
<path d="M354.46 267.19H345.81V277.11H354.46V267.19Z" fill="#FAFAFA"/>
<path d="M354.46 283.82H345.81V293.74H354.46V283.82Z" fill="#FAFAFA"/>
<path d="M354.46 300.45H345.81V310.37H354.46V300.45Z" fill="#FAFAFA"/>
<path d="M452.81 108.65H443.42V119.41H452.81V108.65Z" fill="#FAFAFA"/>
<path d="M452.81 126.69H443.42V137.45H452.81V126.69Z" fill="#FAFAFA"/>
<path d="M452.81 143.51H443.42V154.27H452.81V143.51Z" fill="#FAFAFA"/>
<path d="M452.81 161.55H443.42V172.31H452.81V161.55Z" fill="#FAFAFA"/>
<path d="M452.81 179.59H443.42V190.35H452.81V179.59Z" fill="#FAFAFA"/>
<path d="M452.81 197.65H443.42V208.41H452.81V197.65Z" fill="#FAFAFA"/>
<path d="M452.81 215.69H443.42V226.45H452.81V215.69Z" fill="#FAFAFA"/>
<path d="M452.81 233.75H443.42V244.51H452.81V233.75Z" fill="#FAFAFA"/>
<path d="M593.88 93H584.49V103.76H593.88V93Z" fill="#FAFAFA"/>
<path d="M593.88 111.04H584.49V121.8H593.88V111.04Z" fill="#FAFAFA"/>
<path d="M593.88 129.1H584.49V139.86H593.88V129.1Z" fill="#FAFAFA"/>
<path d="M593.88 147.14H584.49V157.9H593.88V147.14Z" fill="#FAFAFA"/>
<path d="M593.88 165.2H584.49V175.96H593.88V165.2Z" fill="#FAFAFA"/>
<path d="M593.88 183.24H584.49V194H593.88V183.24Z" fill="#FAFAFA"/>
<path d="M593.88 201.29H584.49V212.05H593.88V201.29Z" fill="#FAFAFA"/>
<path d="M593.88 219.34H584.49V230.1H593.88V219.34Z" fill="#FAFAFA"/>
<path d="M661.16 175.91H604.6V346.07H661.16V175.91Z" fill="#E6E6E6"/>
<path d="M629.55 184.3H612.97V195.06H629.55V184.3Z" fill="#FAFAFA"/>
<path d="M629.55 202.36H612.97V213.12H629.55V202.36Z" fill="#FAFAFA"/>
<path d="M629.55 220.4H612.97V231.16H629.55V220.4Z" fill="#FAFAFA"/>
<path d="M629.55 238.45H612.97V249.21H629.55V238.45Z" fill="#FAFAFA"/>
<path d="M629.55 256.5H612.97V267.26H629.55V256.5Z" fill="#FAFAFA"/>
<path d="M629.55 274.54H612.97V285.3H629.55V274.54Z" fill="#FAFAFA"/>
<path d="M629.55 292.6H612.97V303.36H629.55V292.6Z" fill="#FAFAFA"/>
<path d="M629.55 310.64H612.97V321.4H629.55V310.64Z" fill="#FAFAFA"/>
<path d="M651.73 184.3H635.15V195.06H651.73V184.3Z" fill="#FAFAFA"/>
<path d="M651.73 202.36H635.15V213.12H651.73V202.36Z" fill="#FAFAFA"/>
<path d="M651.73 220.4H635.15V231.16H651.73V220.4Z" fill="#FAFAFA"/>
<path d="M651.73 238.45H635.15V249.21H651.73V238.45Z" fill="#FAFAFA"/>
<path d="M651.73 256.5H635.15V267.26H651.73V256.5Z" fill="#FAFAFA"/>
<path d="M651.73 274.54H635.15V285.3H651.73V274.54Z" fill="#FAFAFA"/>
<path d="M651.73 292.6H635.15V303.36H651.73V292.6Z" fill="#FAFAFA"/>
<path d="M651.73 310.64H635.15V321.4H651.73V310.64Z" fill="#FAFAFA"/>
<path d="M573.76 346V228.22H549.09V346H573.76Z" fill="#E0E0E0"/>
<path d="M553.95 232.98H550.96V241H553.95V232.98Z" fill="#FAFAFA"/>
<path d="M559.93 232.98H556.94V241H559.93V232.98Z" fill="#FAFAFA"/>
<path d="M565.9 232.98H562.91V241H565.9V232.98Z" fill="#FAFAFA"/>
<path d="M571.89 232.98H568.9V241H571.89V232.98Z" fill="#FAFAFA"/>
<path d="M553.95 246.44H550.96V254.46H553.95V246.44Z" fill="#FAFAFA"/>
<path d="M559.93 246.44H556.94V254.46H559.93V246.44Z" fill="#FAFAFA"/>
<path d="M565.9 246.44H562.91V254.46H565.9V246.44Z" fill="#FAFAFA"/>
<path d="M571.89 246.44H568.9V254.46H571.89V246.44Z" fill="#FAFAFA"/>
<path d="M553.95 259.89H550.96V267.91H553.95V259.89Z" fill="#FAFAFA"/>
<path d="M559.93 259.89H556.94V267.91H559.93V259.89Z" fill="#FAFAFA"/>
<path d="M565.9 259.89H562.91V267.91H565.9V259.89Z" fill="#FAFAFA"/>
<path d="M571.89 259.89H568.9V267.91H571.89V259.89Z" fill="#FAFAFA"/>
<path d="M553.95 273.35H550.96V281.37H553.95V273.35Z" fill="#FAFAFA"/>
<path d="M559.93 273.35H556.94V281.37H559.93V273.35Z" fill="#FAFAFA"/>
<path d="M565.9 273.35H562.91V281.37H565.9V273.35Z" fill="#FAFAFA"/>
<path d="M571.89 273.35H568.9V281.37H571.89V273.35Z" fill="#FAFAFA"/>
<path d="M553.95 286.82H550.96V294.84H553.95V286.82Z" fill="#FAFAFA"/>
<path d="M559.93 286.82H556.94V294.84H559.93V286.82Z" fill="#FAFAFA"/>
<path d="M565.9 286.82H562.91V294.84H565.9V286.82Z" fill="#FAFAFA"/>
<path d="M571.89 286.82H568.9V294.84H571.89V286.82Z" fill="#FAFAFA"/>
<path d="M553.95 300.27H550.96V308.29H553.95V300.27Z" fill="#FAFAFA"/>
<path d="M559.93 300.27H556.94V308.29H559.93V300.27Z" fill="#FAFAFA"/>
<path d="M565.9 300.27H562.91V308.29H565.9V300.27Z" fill="#FAFAFA"/>
<path d="M571.89 300.27H568.9V308.29H571.89V300.27Z" fill="#FAFAFA"/>
<path d="M553.95 313.73H550.96V321.75H553.95V313.73Z" fill="#FAFAFA"/>
<path d="M559.93 313.73H556.94V321.75H559.93V313.73Z" fill="#FAFAFA"/>
<path d="M565.9 313.73H562.91V321.75H565.9V313.73Z" fill="#FAFAFA"/>
<path d="M571.89 313.73H568.9V321.75H571.89V313.73Z" fill="#FAFAFA"/>
<path d="M553.95 327.18H550.96V335.2H553.95V327.18Z" fill="#FAFAFA"/>
<path d="M559.93 327.18H556.94V335.2H559.93V327.18Z" fill="#FAFAFA"/>
<path d="M565.9 327.18H562.91V335.2H565.9V327.18Z" fill="#FAFAFA"/>
<path d="M571.89 327.18H568.9V335.2H571.89V327.18Z" fill="#FAFAFA"/>
<path d="M278.23 254.54H270.23V261.27H278.23V254.54Z" fill="#E6E6E6"/>
<path d="M294.22 254.54H286.22V261.27H294.22V254.54Z" fill="#E6E6E6"/>
<path d="M310.2 254.54H302.2V261.27H310.2V254.54Z" fill="#E6E6E6"/>
<path d="M326.2 254.54H318.2V261.27H326.2V254.54Z" fill="#E6E6E6"/>
<path d="M278.23 265.83H270.23V272.56H278.23V265.83Z" fill="#E6E6E6"/>
<path d="M294.22 265.83H286.22V272.56H294.22V265.83Z" fill="#E6E6E6"/>
<path d="M310.2 265.83H302.2V272.56H310.2V265.83Z" fill="#E6E6E6"/>
<path d="M326.2 265.83H318.2V272.56H326.2V265.83Z" fill="#E6E6E6"/>
<path d="M278.23 277.11H270.23V283.84H278.23V277.11Z" fill="#E6E6E6"/>
<path d="M294.22 277.11H286.22V283.84H294.22V277.11Z" fill="#E6E6E6"/>
<path d="M310.2 277.11H302.2V283.84H310.2V277.11Z" fill="#E6E6E6"/>
<path d="M326.2 277.11H318.2V283.84H326.2V277.11Z" fill="#E6E6E6"/>
<path d="M278.23 288.4H270.23V295.13H278.23V288.4Z" fill="#E6E6E6"/>
<path d="M294.22 288.4H286.22V295.13H294.22V288.4Z" fill="#E6E6E6"/>
<path d="M310.2 288.4H302.2V295.13H310.2V288.4Z" fill="#E6E6E6"/>
<path d="M326.2 288.4H318.2V295.13H326.2V288.4Z" fill="#E6E6E6"/>
<path d="M278.23 299.68H270.23V306.41H278.23V299.68Z" fill="#E6E6E6"/>
<path d="M294.22 299.68H286.22V306.41H294.22V299.68Z" fill="#E6E6E6"/>
<path d="M310.2 299.68H302.2V306.41H310.2V299.68Z" fill="#E6E6E6"/>
<path d="M326.2 299.68H318.2V306.41H326.2V299.68Z" fill="#E6E6E6"/>
<path d="M278.23 310.96H270.23V317.69H278.23V310.96Z" fill="#E6E6E6"/>
<path d="M294.22 310.96H286.22V317.69H294.22V310.96Z" fill="#E6E6E6"/>
<path d="M310.2 310.96H302.2V317.69H310.2V310.96Z" fill="#E6E6E6"/>
<path d="M326.2 310.96H318.2V317.69H326.2V310.96Z" fill="#E6E6E6"/>
<path d="M278.23 322.25H270.23V328.98H278.23V322.25Z" fill="#E6E6E6"/>
<path d="M294.22 322.25H286.22V328.98H294.22V322.25Z" fill="#E6E6E6"/>
<path d="M310.2 322.25H302.2V328.98H310.2V322.25Z" fill="#E6E6E6"/>
<path d="M326.2 322.25H318.2V328.98H326.2V322.25Z" fill="#E6E6E6"/>
<path d="M709.86 424.06H654.13V424.48H709.86V424.06Z" fill="#EBEBEB"/>
<path d="M510.17 428.62H495.54V429.04H510.17V428.62Z" fill="#EBEBEB"/>
<path d="M113.81 411.26H41.14V411.68H113.81V411.26Z" fill="#EBEBEB"/>
<path d="M139.46 411.26H128.8V411.68H139.46V411.26Z" fill="#EBEBEB"/>
<path d="M331.7 418.36H174.09V418.78H331.7V418.36Z" fill="#EBEBEB"/>
<path d="M657.5 451.63C657.5 455.02 539.93 457.76 394.9 457.76C249.87 457.76 132.3 455.02 132.3 451.63C132.3 448.24 249.87 445.5 394.9 445.5C539.93 445.5 657.5 448.25 657.5 451.63Z" fill="#F5F5F5"/>
<path d="M58.29 83.91H198.64C202.116 83.91 205.451 85.2875 207.914 87.741C210.377 90.1944 211.767 93.5238 211.78 97V388.94C211.78 393.449 209.989 397.773 206.801 400.961C203.613 404.149 199.289 405.94 194.78 405.94H62.18C57.6713 405.94 53.3473 404.149 50.1592 400.961C46.9711 397.773 45.18 393.449 45.18 388.94V97C45.1932 93.5289 46.5793 90.2041 49.0356 87.7515C51.4919 85.299 54.8189 83.9179 58.29 83.91Z" fill="#263238"/>
<path d="M163.01 91.14L160.34 96.41H95.14L91.26 91.14H60.44C59.2705 91.1321 58.111 91.3553 57.028 91.7968C55.945 92.2383 54.9598 92.8893 54.1292 93.7126C53.2985 94.5358 52.6386 95.5151 52.1874 96.594C51.7362 97.673 51.5026 98.8305 51.5 100V384.1C51.5105 385.862 51.868 387.604 52.5523 389.228C53.2365 390.852 54.234 392.325 55.4877 393.563C56.7415 394.8 58.2269 395.779 59.859 396.443C61.4912 397.106 63.2381 397.442 65 397.43H191.93C193.691 397.441 195.437 397.104 197.068 396.44C198.699 395.776 200.183 394.797 201.436 393.559C202.688 392.321 203.685 390.849 204.369 389.226C205.052 387.603 205.41 385.861 205.42 384.1V100C205.417 98.8322 205.184 97.6764 204.734 96.5987C204.285 95.521 203.626 94.5427 202.798 93.7197C201.969 92.8967 200.987 92.2452 199.906 91.8026C198.825 91.3599 197.668 91.1348 196.5 91.14H163.01Z" fill="white"/>
<path d="M128.39 90.64C128.398 91.1717 128.248 91.6937 127.958 92.1397C127.668 92.5856 127.253 92.9353 126.764 93.1443C126.275 93.3533 125.735 93.4121 125.212 93.3133C124.69 93.2144 124.208 92.9624 123.83 92.5892C123.451 92.2161 123.191 91.7387 123.085 91.2177C122.978 90.6968 123.029 90.1559 123.23 89.6639C123.432 89.1718 123.775 88.7509 124.217 88.4546C124.659 88.1583 125.178 88.0001 125.71 88C126.414 87.9999 127.09 88.2768 127.591 88.7708C128.093 89.2647 128.379 89.9362 128.39 90.64Z" fill="white"/>
<path d="M132.35 90.64C132.35 90.9051 132.271 91.1641 132.124 91.3845C131.977 91.6049 131.768 91.7766 131.523 91.878C131.278 91.9795 131.009 92.006 130.749 91.9543C130.489 91.9026 130.25 91.775 130.062 91.5876C129.875 91.4002 129.747 91.1614 129.696 90.9015C129.644 90.6415 129.671 90.3721 129.772 90.1273C129.873 89.8824 130.045 89.6731 130.266 89.5259C130.486 89.3786 130.745 89.3 131.01 89.3C131.365 89.3 131.706 89.4412 131.958 89.6925C132.209 89.9438 132.35 90.2847 132.35 90.64Z" fill="white"/>
<path d="M196.5 91.14H163.01L160.34 96.41H95.14L91.26 91.14H60.44C59.2705 91.1321 58.111 91.3553 57.028 91.7968C55.945 92.2383 54.9598 92.8893 54.1292 93.7126C53.2985 94.5358 52.6386 95.5151 52.1874 96.594C51.7362 97.673 51.5026 98.8305 51.5 100V172.69H205.42V100C205.417 98.8322 205.184 97.6764 204.734 96.5987C204.285 95.521 203.626 94.5427 202.798 93.7197C201.969 92.8967 200.987 92.2452 199.906 91.8026C198.825 91.3599 197.668 91.1348 196.5 91.14Z" fill="#407BFF"/>
<path d="M97.3134 151.855C96.4032 151.855 95.5556 151.707 94.7706 151.411C93.997 151.104 93.3201 150.678 92.7398 150.132C92.171 149.574 91.7273 148.92 91.4087 148.169C91.0902 147.418 90.9309 146.599 90.9309 145.712C90.9309 144.824 91.0902 144.005 91.4087 143.254C91.7273 142.503 92.1767 141.855 92.7569 141.309C93.3371 140.751 94.0141 140.325 94.7877 140.029C95.5613 139.722 96.4089 139.568 97.3305 139.568C98.3089 139.568 99.202 139.739 100.01 140.08C100.818 140.41 101.5 140.905 102.058 141.565L100.624 142.913C100.192 142.446 99.7083 142.099 99.1735 141.872C98.6388 141.633 98.0586 141.513 97.4329 141.513C96.8071 141.513 96.2326 141.616 95.7092 141.821C95.1973 142.025 94.7479 142.316 94.3611 142.691C93.9856 143.066 93.6898 143.51 93.4736 144.022C93.2689 144.534 93.1665 145.097 93.1665 145.712C93.1665 146.326 93.2689 146.889 93.4736 147.401C93.6898 147.913 93.9856 148.357 94.3611 148.732C94.7479 149.108 95.1973 149.398 95.7092 149.603C96.2326 149.807 96.8071 149.91 97.4329 149.91C98.0586 149.91 98.6388 149.796 99.1735 149.568C99.7083 149.329 100.192 148.971 100.624 148.493L102.058 149.858C101.5 150.507 100.818 151.002 100.01 151.343C99.202 151.685 98.3032 151.855 97.3134 151.855ZM109.51 151.685V149.841L109.39 149.449V146.224C109.39 145.598 109.203 145.114 108.827 144.773C108.452 144.42 107.883 144.244 107.121 144.244C106.609 144.244 106.102 144.324 105.602 144.483C105.113 144.642 104.697 144.864 104.356 145.148L103.52 143.595C104.009 143.22 104.589 142.941 105.26 142.759C105.943 142.566 106.648 142.469 107.377 142.469C108.696 142.469 109.715 142.788 110.431 143.425C111.159 144.051 111.524 145.023 111.524 146.343V151.685H109.51ZM106.643 151.804C105.96 151.804 105.363 151.69 104.851 151.463C104.339 151.224 103.941 150.899 103.656 150.49C103.383 150.069 103.247 149.597 103.247 149.073C103.247 148.562 103.366 148.101 103.605 147.691C103.855 147.282 104.259 146.957 104.817 146.718C105.374 146.48 106.114 146.36 107.035 146.36H109.68V147.777H107.189C106.461 147.777 105.972 147.896 105.721 148.135C105.471 148.362 105.346 148.647 105.346 148.988C105.346 149.375 105.499 149.682 105.807 149.91C106.114 150.137 106.54 150.251 107.086 150.251C107.61 150.251 108.076 150.132 108.486 149.893C108.907 149.654 109.208 149.301 109.39 148.835L109.749 150.114C109.544 150.649 109.174 151.064 108.639 151.36C108.116 151.656 107.451 151.804 106.643 151.804ZM114.261 151.685V142.572H116.292V145.08L116.053 144.346C116.326 143.732 116.753 143.266 117.333 142.947C117.925 142.628 118.658 142.469 119.534 142.469V144.5C119.443 144.477 119.358 144.466 119.278 144.466C119.199 144.454 119.119 144.449 119.04 144.449C118.232 144.449 117.589 144.688 117.111 145.165C116.633 145.632 116.394 146.332 116.394 147.265V151.685H114.261ZM129.878 139.739H132.097V151.685H129.878V139.739ZM123.701 151.685H121.482V139.739H123.701V151.685ZM130.049 146.565H123.513V144.671H130.049V146.565ZM138.95 151.804C138.176 151.804 137.494 151.662 136.902 151.377C136.31 151.082 135.85 150.638 135.52 150.046C135.19 149.443 135.025 148.687 135.025 147.777V142.572H137.158V147.486C137.158 148.306 137.34 148.92 137.704 149.329C138.08 149.728 138.609 149.927 139.291 149.927C139.792 149.927 140.224 149.824 140.588 149.62C140.964 149.415 141.254 149.108 141.459 148.698C141.675 148.288 141.783 147.782 141.783 147.179V142.572H143.916V151.685H141.885V149.227L142.244 149.978C141.936 150.57 141.487 151.025 140.895 151.343C140.304 151.65 139.655 151.804 138.95 151.804ZM151.76 151.804C150.987 151.804 150.298 151.633 149.696 151.292C149.093 150.951 148.615 150.439 148.262 149.756C147.921 149.062 147.75 148.186 147.75 147.128C147.75 146.059 147.926 145.183 148.279 144.5C148.643 143.817 149.127 143.311 149.73 142.981C150.344 142.64 151.021 142.469 151.76 142.469C152.659 142.469 153.45 142.663 154.133 143.049C154.827 143.436 155.373 143.977 155.771 144.671C156.18 145.365 156.385 146.184 156.385 147.128C156.385 148.072 156.18 148.891 155.771 149.585C155.373 150.279 154.827 150.826 154.133 151.224C153.45 151.611 152.659 151.804 151.76 151.804ZM146.709 151.685V139.022H148.842V144.688L148.672 147.111L148.74 149.534V151.685H146.709ZM151.522 149.978C152.033 149.978 152.489 149.864 152.887 149.637C153.296 149.409 153.621 149.079 153.859 148.647C154.098 148.215 154.218 147.708 154.218 147.128C154.218 146.536 154.098 146.03 153.859 145.609C153.621 145.177 153.296 144.847 152.887 144.619C152.489 144.392 152.033 144.278 151.522 144.278C151.01 144.278 150.549 144.392 150.139 144.619C149.73 144.847 149.405 145.177 149.166 145.609C148.928 146.03 148.808 146.536 148.808 147.128C148.808 147.708 148.928 148.215 149.166 148.647C149.405 149.079 149.73 149.409 150.139 149.637C150.549 149.864 151.01 149.978 151.522 149.978Z" fill="white"/>
<path d="M145.07 128.38V123.09C145.065 122.877 145.011 122.668 144.912 122.479C144.813 122.29 144.672 122.126 144.5 122L144.38 121.93L140.63 119.93C140.602 119.91 140.581 119.882 140.57 119.85C140.56 119.825 140.556 119.799 140.557 119.772C140.558 119.745 140.564 119.719 140.575 119.695C140.586 119.67 140.602 119.649 140.622 119.631C140.642 119.613 140.665 119.599 140.69 119.59L141.14 119.43C141.159 119.422 141.176 119.41 141.19 119.394C141.204 119.378 141.214 119.36 141.22 119.34C141.22 119.311 141.211 119.284 141.192 119.262C141.174 119.24 141.148 119.225 141.12 119.22C139.34 118.97 132.41 118.07 128.77 118.51C127.997 118.585 127.235 118.75 126.5 119C124.49 119.756 122.619 120.837 120.96 122.2L120.41 122.65C117.924 122.634 115.464 123.145 113.19 124.15C112.992 124.239 112.815 124.367 112.669 124.527C112.523 124.687 112.411 124.875 112.34 125.08L111.92 126.34C111.86 126.5 111.83 126.669 111.83 126.84V129.5C111.829 129.778 111.918 130.049 112.084 130.273C112.25 130.496 112.483 130.66 112.75 130.74L112.96 130.81C113.097 130.85 113.238 130.87 113.38 130.87H114.81V130.75H115.43C115.578 131.236 115.842 131.679 116.2 132.04C116.577 132.428 117.051 132.707 117.573 132.848C118.095 132.989 118.646 132.985 119.166 132.839C119.687 132.692 120.158 132.408 120.53 132.016C120.902 131.623 121.161 131.138 121.28 130.61H121.9V130.75L136.15 130.41H136.5C136.5 130.41 136.5 130.32 136.5 130.28H137.1C137.119 131.076 137.452 131.831 138.028 132.381C138.604 132.93 139.374 133.229 140.17 133.21C140.966 133.191 141.721 132.858 142.271 132.282C142.82 131.706 143.119 130.936 143.1 130.14H143.7H143.76L144.04 130.01L144.25 129.92C144.491 129.812 144.696 129.637 144.84 129.415C144.983 129.193 145.06 128.934 145.06 128.67V128.53L145.07 128.38Z" fill="white"/>
<path d="M183.39 273.8L67.55 276.51V256.7H184.5L183.39 273.8Z" fill="#263238"/>
<path d="M63.09 261.78V271.83C63.087 272.88 63.4219 273.902 64.0449 274.747C64.668 275.591 65.5463 276.213 66.55 276.52L67.37 276.77C67.8745 276.928 68.4015 277.003 68.93 276.99L74.34 276.86C73.7616 274.845 73.6528 272.725 74.022 270.662C74.3912 268.598 75.2285 266.647 76.4697 264.958C77.7109 263.269 79.3228 261.887 81.1816 260.918C83.0404 259.95 85.0965 259.42 87.192 259.37C89.2875 259.321 91.3664 259.752 93.2691 260.631C95.1718 261.511 96.8476 262.814 98.1675 264.443C99.4875 266.071 100.417 267.98 100.883 270.024C101.35 272.067 101.342 274.19 100.86 276.23L155.91 274.92C155.822 274.277 155.778 273.629 155.78 272.98C155.739 271.149 156.066 269.329 156.74 267.626C157.414 265.924 158.423 264.374 159.706 263.067C160.989 261.761 162.521 260.725 164.211 260.02C165.901 259.316 167.715 258.957 169.547 258.965C171.378 258.973 173.189 259.348 174.873 260.067C176.557 260.786 178.079 261.836 179.351 263.153C180.623 264.471 181.618 266.03 182.277 267.738C182.936 269.447 183.247 271.27 183.19 273.1C183.19 273.37 183.19 273.63 183.19 273.89L183.41 273.8L185.29 272.96C186.19 272.541 186.951 271.873 187.483 271.035C188.015 270.196 188.295 269.223 188.29 268.23V247.77C188.292 246.825 188.035 245.897 187.546 245.088C187.058 244.279 186.357 243.619 185.52 243.18L171.37 235.74C171.211 235.651 171.088 235.509 171.02 235.34C170.98 235.245 170.96 235.143 170.962 235.04C170.963 234.938 170.986 234.836 171.028 234.742C171.07 234.648 171.131 234.564 171.207 234.495C171.283 234.426 171.373 234.373 171.47 234.34L173.2 233.72C173.27 233.694 173.333 233.65 173.38 233.592C173.427 233.534 173.459 233.464 173.47 233.39C173.477 233.337 173.473 233.284 173.46 233.233C173.446 233.182 173.422 233.134 173.389 233.092C173.357 233.05 173.316 233.015 173.27 232.989C173.224 232.963 173.173 232.946 173.12 232.94C166.4 232 140.25 228.58 126.5 230.26C110.68 232.24 95.5 246 95.5 246C83.83 245.56 72.94 249.63 68.25 251.66C67.5012 251.987 66.8293 252.467 66.278 253.07C65.7268 253.673 65.3084 254.385 65.05 255.16L63.44 259.91C63.2246 260.511 63.1065 261.142 63.09 261.78Z" fill="#407BFF"/>
<path d="M155.92 274.92C155.84 274.317 155.8 273.709 155.8 273.1C155.8 272.79 155.8 272.48 155.8 272.18L145.8 268.1C145.216 267.866 144.588 267.763 143.96 267.8L109.33 270.08C108.765 270.11 108.213 270.26 107.71 270.52L101.13 273.91C101.085 274.691 100.975 275.467 100.8 276.23L155.92 274.92Z" fill="#263238"/>
<path d="M188.33 268.23V267.71L182.7 269.43C183.022 270.627 183.187 271.861 183.19 273.1C183.19 273.37 183.19 273.63 183.19 273.89L183.41 273.8L185.3 272.96C186.205 272.544 186.972 271.878 187.509 271.039C188.046 270.201 188.331 269.226 188.33 268.23Z" fill="#263238"/>
<path d="M64.69 275.44C65.2259 275.939 65.869 276.308 66.57 276.52L67.39 276.77C67.8945 276.928 68.4215 277.003 68.95 276.99L74.36 276.86C74.1612 276.176 74.0174 275.477 73.93 274.77L64.69 275.44Z" fill="#263238"/>
<path d="M169.5 258.1C168.878 258.1 168.257 258.14 167.64 258.22C163.7 258.719 160.118 260.761 157.681 263.897C155.244 267.034 154.15 271.008 154.64 274.95H155.94C155.852 274.307 155.808 273.659 155.81 273.01C155.769 271.179 156.096 269.359 156.77 267.656C157.444 265.954 158.453 264.404 159.736 263.097C161.019 261.791 162.551 260.755 164.241 260.05C165.931 259.346 167.745 258.987 169.577 258.995C171.408 259.003 173.219 259.378 174.903 260.097C176.587 260.816 178.109 261.866 179.381 263.183C180.653 264.501 181.648 266.06 182.307 267.768C182.966 269.477 183.277 271.3 183.22 273.13C183.22 273.4 183.22 273.66 183.22 273.92L183.44 273.83L184.52 273.34V273.13C184.52 269.152 182.94 265.336 180.127 262.523C177.314 259.71 173.498 258.13 169.52 258.13L169.5 258.1Z" fill="#263238"/>
<path d="M87.5 258.1C86.2177 258.102 84.9409 258.267 83.7 258.59C79.8522 259.596 76.5613 262.089 74.5511 265.521C72.5408 268.952 71.9757 273.042 72.98 276.89H74.32C73.7416 274.875 73.6328 272.755 74.002 270.692C74.3712 268.628 75.2085 266.677 76.4497 264.988C77.6909 263.299 79.3028 261.917 81.1616 260.948C83.0204 259.98 85.0765 259.45 87.172 259.4C89.2675 259.351 91.3464 259.782 93.2491 260.661C95.1518 261.541 96.8276 262.844 98.1475 264.473C99.4675 266.101 100.397 268.01 100.863 270.054C101.33 272.097 101.322 274.22 100.84 276.26H102.16C102.38 275.238 102.491 274.195 102.49 273.15C102.49 269.172 100.91 265.356 98.0966 262.543C95.2836 259.73 91.4682 258.15 87.49 258.15L87.5 258.1Z" fill="#263238"/>
<path d="M100.67 245.76C100.512 245.877 100.402 246.048 100.36 246.24C100.318 246.457 100.361 246.682 100.48 246.868C100.599 247.054 100.785 247.188 101 247.24L106.75 248.56C107.262 248.672 107.789 248.699 108.31 248.64L150.64 243.38C151.669 243.25 152.623 242.77 153.34 242.02L158.79 236.25C158.973 236.06 159.086 235.813 159.11 235.55C159.125 235.396 159.11 235.24 159.065 235.092C159.02 234.943 158.946 234.805 158.847 234.685C158.749 234.566 158.628 234.466 158.491 234.393C158.354 234.32 158.204 234.275 158.05 234.26C147.87 233.26 135 232.35 126.91 233.34C116.3 234.67 105.74 241.84 100.67 245.76Z" fill="#263238"/>
<g opacity="0.3">
<path d="M128.5 250.62C128.435 250.597 128.376 250.561 128.326 250.514C128.275 250.468 128.234 250.412 128.205 250.35C128.177 250.287 128.16 250.22 128.158 250.151C128.155 250.083 128.166 250.014 128.19 249.95C128.247 249.784 128.353 249.64 128.494 249.536C128.635 249.433 128.805 249.375 128.98 249.37L134.03 249.16C134.095 249.141 134.165 249.141 134.23 249.16C134.36 249.208 134.467 249.304 134.527 249.43C134.587 249.555 134.595 249.699 134.55 249.83C134.49 249.996 134.382 250.14 134.239 250.243C134.096 250.346 133.926 250.405 133.75 250.41L128.7 250.62C128.634 250.63 128.566 250.63 128.5 250.62Z" fill="black"/>
</g>
<path d="M166.04 236.15C165.829 236.343 165.701 236.611 165.685 236.897C165.668 237.182 165.763 237.463 165.95 237.68L167.15 238.98C167.289 239.128 167.465 239.235 167.66 239.29L182.33 243.36C182.584 243.429 182.847 243.463 183.11 243.46H186.02C185.868 243.359 185.711 243.265 185.55 243.18L171.4 235.73C171.31 235.689 171.23 235.63 171.164 235.556C171.099 235.482 171.049 235.395 171.019 235.301C170.989 235.207 170.979 235.107 170.989 235.009C171 234.911 171.031 234.816 171.08 234.73L166.48 235.88C166.314 235.934 166.163 236.026 166.04 236.15Z" fill="#263238"/>
<path d="M95.5 246L96.3 246.23C96.6056 246.312 96.9263 246.32 97.2357 246.254C97.5452 246.188 97.8345 246.05 98.08 245.85C102.72 241.92 110.78 235.85 119.48 233.1C119.5 233.094 119.518 233.084 119.534 233.07C119.55 233.056 119.562 233.039 119.57 233.02C119.581 233.002 119.588 232.981 119.59 232.96C119.593 232.939 119.592 232.918 119.586 232.897C119.58 232.877 119.571 232.858 119.558 232.841C119.545 232.824 119.529 232.81 119.51 232.8L118.43 232.25C105.86 236.59 95.5 246 95.5 246Z" fill="#263238"/>
<path d="M169.51 284.52C175.817 284.52 180.93 279.407 180.93 273.1C180.93 266.793 175.817 261.68 169.51 261.68C163.203 261.68 158.09 266.793 158.09 273.1C158.09 279.407 163.203 284.52 169.51 284.52Z" fill="#263238"/>
<path opacity="0.4" d="M169.51 280.1C173.376 280.1 176.51 276.966 176.51 273.1C176.51 269.234 173.376 266.1 169.51 266.1C165.644 266.1 162.51 269.234 162.51 273.1C162.51 276.966 165.644 280.1 169.51 280.1Z" fill="white"/>
<g opacity="0.3">
<path d="M170.07 267.36C170.07 267.051 169.819 266.8 169.51 266.8C169.201 266.8 168.95 267.051 168.95 267.36V270.95C168.95 271.259 169.201 271.51 169.51 271.51C169.819 271.51 170.07 271.259 170.07 270.95V267.36Z" fill="white"/>
</g>
<g opacity="0.3">
<path d="M170.07 275.25C170.07 274.941 169.819 274.69 169.51 274.69C169.201 274.69 168.95 274.941 168.95 275.25V278.84C168.95 279.149 169.201 279.4 169.51 279.4C169.819 279.4 170.07 279.149 170.07 278.84V275.25Z" fill="white"/>
</g>
<g opacity="0.3">
<path d="M171.65 272.51C171.52 272.583 171.366 272.602 171.222 272.562C171.078 272.523 170.955 272.429 170.88 272.3C170.808 272.171 170.789 272.019 170.829 271.877C170.868 271.734 170.962 271.613 171.09 271.54L174.2 269.73C174.329 269.658 174.481 269.639 174.623 269.679C174.766 269.718 174.887 269.812 174.96 269.94C174.998 270.003 175.022 270.073 175.032 270.145C175.043 270.217 175.038 270.291 175.02 270.362C175.001 270.433 174.969 270.499 174.924 270.557C174.879 270.615 174.824 270.664 174.76 270.7L171.65 272.51Z" fill="white"/>
</g>
<g opacity="0.3">
<path d="M164.82 276.44C164.69 276.513 164.536 276.532 164.392 276.492C164.248 276.453 164.125 276.359 164.05 276.23C163.978 276.101 163.959 275.949 163.999 275.807C164.038 275.664 164.132 275.543 164.26 275.47L167.36 273.66C167.49 273.587 167.644 273.569 167.788 273.608C167.932 273.647 168.055 273.741 168.13 273.87C168.201 274 168.22 274.152 168.183 274.295C168.146 274.438 168.055 274.561 167.93 274.64L164.82 276.44Z" fill="white"/>
</g>
<g opacity="0.3">
<path d="M174.2 276.45L171.09 274.65C170.961 274.575 170.867 274.452 170.828 274.308C170.788 274.164 170.807 274.01 170.88 273.88C170.917 273.816 170.967 273.76 171.026 273.715C171.085 273.671 171.152 273.638 171.223 273.62C171.295 273.601 171.369 273.597 171.443 273.607C171.516 273.617 171.586 273.642 171.65 273.68L174.76 275.48C174.887 275.557 174.979 275.681 175.017 275.824C175.054 275.968 175.034 276.121 174.96 276.25C174.924 276.314 174.875 276.369 174.817 276.414C174.759 276.459 174.693 276.491 174.622 276.51C174.551 276.528 174.477 276.533 174.405 276.522C174.333 276.512 174.263 276.488 174.2 276.45Z" fill="white"/>
</g>
<g opacity="0.3">
<path d="M168.13 272.3C168.055 272.429 167.932 272.523 167.788 272.562C167.644 272.602 167.49 272.583 167.36 272.51L164.26 270.7C164.132 270.627 164.038 270.506 163.999 270.363C163.959 270.221 163.978 270.069 164.05 269.94C164.125 269.811 164.248 269.717 164.392 269.678C164.536 269.639 164.69 269.657 164.82 269.73L167.93 271.54C168.056 271.615 168.148 271.737 168.186 271.879C168.223 272.021 168.203 272.172 168.13 272.3Z" fill="white"/>
</g>
<path d="M168.57 273.09C168.573 272.842 168.673 272.606 168.849 272.432C169.025 272.258 169.262 272.16 169.51 272.16C169.696 272.16 169.878 272.215 170.032 272.318C170.187 272.422 170.307 272.569 170.378 272.74C170.45 272.912 170.468 273.101 170.432 273.283C170.396 273.466 170.306 273.633 170.175 273.765C170.043 273.896 169.876 273.986 169.693 274.022C169.511 274.058 169.322 274.04 169.15 273.968C168.979 273.897 168.832 273.777 168.728 273.622C168.625 273.468 168.57 273.286 168.57 273.1V273.09Z" fill="#263238"/>
<path d="M87.53 284.52C93.8371 284.52 98.95 279.407 98.95 273.1C98.95 266.793 93.8371 261.68 87.53 261.68C81.2229 261.68 76.11 266.793 76.11 273.1C76.11 279.407 81.2229 284.52 87.53 284.52Z" fill="#263238"/>
<path opacity="0.4" d="M87.53 280.1C91.396 280.1 94.53 276.966 94.53 273.1C94.53 269.234 91.396 266.1 87.53 266.1C83.664 266.1 80.53 269.234 80.53 273.1C80.53 276.966 83.664 280.1 87.53 280.1Z" fill="white"/>
<g opacity="0.3">
<path d="M88.09 267.36C88.09 267.051 87.8393 266.8 87.53 266.8C87.2207 266.8 86.97 267.051 86.97 267.36V270.95C86.97 271.259 87.2207 271.51 87.53 271.51C87.8393 271.51 88.09 271.259 88.09 270.95V267.36Z" fill="white"/>
</g>
<g opacity="0.3">
<path d="M88.09 275.25C88.09 274.941 87.8393 274.69 87.53 274.69C87.2207 274.69 86.97 274.941 86.97 275.25V278.84C86.97 279.149 87.2207 279.4 87.53 279.4C87.8393 279.4 88.09 279.149 88.09 278.84V275.25Z" fill="white"/>
</g>
<g opacity="0.3">
<path d="M89.67 272.51C89.5412 272.582 89.3891 272.601 89.2468 272.561C89.1044 272.522 88.9834 272.428 88.91 272.3C88.8369 272.172 88.8169 272.021 88.8543 271.879C88.8917 271.737 88.9836 271.615 89.11 271.54L92.22 269.73C92.3488 269.658 92.5009 269.639 92.6432 269.679C92.7856 269.718 92.9066 269.812 92.98 269.94C93.0523 270.069 93.0708 270.221 93.0314 270.363C92.9921 270.506 92.8981 270.627 92.77 270.7L89.67 272.51Z" fill="white"/>
</g>
<g opacity="0.3">
<path d="M82.08 276.23C82.0425 276.167 82.0178 276.098 82.0076 276.025C81.9973 275.953 82.0017 275.879 82.0203 275.808C82.0389 275.737 82.0715 275.671 82.1161 275.613C82.1607 275.555 82.2164 275.506 82.28 275.47L85.39 273.66C85.5203 273.587 85.6739 273.569 85.8179 273.608C85.9619 273.647 86.0847 273.741 86.16 273.87C86.2328 274 86.2515 274.154 86.2123 274.298C86.173 274.442 86.0788 274.565 85.95 274.64L82.85 276.44C82.7197 276.513 82.5661 276.532 82.4221 276.492C82.2781 276.453 82.1553 276.359 82.08 276.23Z" fill="white"/>
</g>
<g opacity="0.3">
<path d="M92.99 276.25C92.9528 276.314 92.9033 276.37 92.8444 276.415C92.7855 276.459 92.7183 276.492 92.6467 276.511C92.5751 276.529 92.5005 276.533 92.4273 276.523C92.3541 276.513 92.2836 276.488 92.22 276.45L89.11 274.65C88.9848 274.571 88.8943 274.448 88.8572 274.305C88.82 274.162 88.8389 274.01 88.91 273.88C88.9472 273.816 88.9967 273.76 89.0556 273.715C89.1145 273.671 89.1817 273.638 89.2533 273.62C89.3249 273.601 89.3995 273.597 89.4727 273.607C89.5459 273.617 89.6164 273.642 89.68 273.68L92.78 275.48C92.9088 275.555 93.003 275.678 93.0422 275.822C93.0815 275.966 93.0628 276.12 92.99 276.25Z" fill="white"/>
</g>
<g opacity="0.3">
<path d="M86.15 272.31C86.0749 272.436 85.9532 272.528 85.811 272.566C85.6688 272.603 85.5176 272.583 85.39 272.51L82.28 270.7C82.2164 270.664 82.1607 270.615 82.1161 270.557C82.0715 270.499 82.0389 270.433 82.0203 270.362C82.0017 270.291 81.9973 270.218 82.0076 270.145C82.0178 270.073 82.0425 270.003 82.08 269.94C82.1553 269.811 82.2781 269.717 82.4221 269.678C82.5661 269.639 82.7197 269.657 82.85 269.73L85.95 271.54C86.0781 271.613 86.1721 271.734 86.2114 271.877C86.2508 272.019 86.2323 272.171 86.16 272.3L86.15 272.31Z" fill="white"/>
</g>
<path d="M87.5 272.16C87.6829 272.172 87.8584 272.237 88.0049 272.347C88.1514 272.457 88.2625 272.608 88.3245 272.78C88.3866 272.952 88.3968 273.139 88.3541 273.317C88.3113 273.496 88.2174 273.658 88.0838 273.783C87.9503 273.909 87.783 273.992 87.6024 274.024C87.4219 274.056 87.2361 274.034 87.0678 273.961C86.8995 273.889 86.7561 273.769 86.6552 273.616C86.5543 273.462 86.5004 273.283 86.5 273.1C86.4997 272.971 86.5259 272.844 86.5768 272.726C86.6278 272.608 86.7024 272.501 86.7962 272.413C86.8899 272.325 87.0008 272.257 87.1218 272.214C87.2429 272.17 87.3716 272.152 87.5 272.16Z" fill="#263238"/>
<path opacity="0.3" d="M187.13 251.56C187.312 251.5 187.463 251.372 187.551 251.201C187.639 251.031 187.657 250.833 187.6 250.65C187.47 248.25 186.96 246.11 185.49 244.65C185.444 244.491 185.344 244.353 185.207 244.26C185.07 244.167 184.905 244.124 184.74 244.14L176.04 244.96C175.888 244.976 175.744 245.039 175.63 245.14C175.5 245.274 175.428 245.453 175.428 245.64C175.428 245.827 175.5 246.006 175.63 246.14L178.12 248.83C178.21 248.92 178.319 248.989 178.44 249.03L186.77 251.55C186.887 251.584 187.011 251.587 187.13 251.56Z" fill="black"/>
<path d="M100.36 246.24C100.312 246.458 100.353 246.685 100.473 246.872C100.593 247.06 100.783 247.192 101 247.24L106.75 248.56C107.261 248.682 107.789 248.709 108.31 248.64L109.85 248.45L111.69 238.57C107.835 240.654 104.156 243.048 100.69 245.73C100.52 245.852 100.402 246.034 100.36 246.24Z" fill="black"/>
<path d="M137.38 233L133.98 245.52L138.79 244.93L140.64 233H137.38Z" fill="black"/>
<path d="M159.12 235.57C159.148 235.259 159.053 234.949 158.854 234.708C158.656 234.467 158.371 234.313 158.06 234.28C156.7 234.14 155.26 234.01 153.81 233.88L153.27 242.12L153.34 242.05L158.79 236.28C158.974 236.086 159.09 235.836 159.12 235.57Z" fill="black"/>
<path d="M109.68 246.68C109.408 246.681 109.138 246.629 108.886 246.525C108.635 246.422 108.406 246.269 108.213 246.077C108.021 245.884 107.868 245.656 107.765 245.404C107.661 245.152 107.609 244.882 107.61 244.61C107.615 244.143 107.777 243.691 108.071 243.328C108.366 242.965 108.774 242.712 109.23 242.61L112 242L112.65 246.63L109.73 246.7L109.68 246.68Z" fill="#407BFF"/>
<path opacity="0.3" d="M111.84 246.63L112.65 246.61L112 241.98L111.21 242.15L111.84 246.63Z" fill="black"/>
<path opacity="0.6" d="M134.96 268.52C134.927 268.513 134.898 268.493 134.88 268.465C134.861 268.437 134.854 268.403 134.86 268.37C134.86 268.23 137.86 254.08 138.3 252.15C138.74 250.22 138.3 244.15 138.3 244.15C138.3 244.117 138.312 244.086 138.334 244.061C138.357 244.037 138.387 244.023 138.42 244.02C138.49 244.02 138.55 244.07 138.55 244.14C138.55 244.39 138.94 250.28 138.55 252.22C138.16 254.16 135.15 268.3 135.12 268.45C135.107 268.479 135.083 268.503 135.053 268.516C135.024 268.529 134.991 268.53 134.96 268.52Z" fill="black"/>
<path opacity="0.6" d="M107.79 270.65C107.769 270.65 107.749 270.645 107.731 270.634C107.714 270.624 107.699 270.608 107.69 270.59C107.69 270.59 103.76 264.78 102.42 262.36C101.08 259.94 100.27 247.18 100.24 246.64C100.237 246.607 100.247 246.574 100.267 246.548C100.288 246.522 100.317 246.505 100.35 246.5C100.384 246.5 100.417 246.512 100.443 246.534C100.468 246.556 100.485 246.586 100.49 246.62C100.49 246.75 101.28 259.8 102.64 262.24C104 264.68 107.86 270.4 107.89 270.45C107.913 270.474 107.926 270.506 107.926 270.54C107.926 270.574 107.913 270.606 107.89 270.63L107.79 270.65Z" fill="black"/>
<path opacity="0.6" d="M69.7 253.16C69.6743 253.16 69.6492 253.152 69.6279 253.138C69.6065 253.124 69.5899 253.104 69.58 253.08C69.5718 253.065 69.5672 253.049 69.5664 253.032C69.5656 253.015 69.5687 252.998 69.5755 252.983C69.5823 252.967 69.5925 252.954 69.6054 252.943C69.6184 252.932 69.6336 252.924 69.65 252.92C74.5125 251.302 79.4724 249.992 84.5 249C87.33 248.55 96.98 246.17 97.08 246.14C97.1131 246.134 97.1472 246.141 97.1751 246.16C97.2031 246.178 97.2228 246.207 97.23 246.24C97.2345 246.256 97.2357 246.272 97.2335 246.289C97.2313 246.305 97.2259 246.32 97.2174 246.334C97.209 246.349 97.1978 246.361 97.1845 246.37C97.1712 246.38 97.156 246.387 97.14 246.39C97.04 246.39 87.38 248.8 84.54 249.25C79.5473 250.23 74.621 251.523 69.79 253.12L69.7 253.16Z" fill="black"/>
<path d="M165.18 198.32H97.54V205.03H165.18V198.32Z" fill="#263238"/>
<path opacity="0.7" d="M165.18 198.32H97.54V205.03H165.18V198.32Z" fill="white"/>
<path d="M164.09 302.53H103.86V309.24H164.09V302.53Z" fill="#263238"/>
<path opacity="0.7" d="M164.09 302.53H103.86V309.24H164.09V302.53Z" fill="white"/>
<path d="M121.98 316.43H103.86V323.14H121.98V316.43Z" fill="#263238"/>
<path opacity="0.7" d="M121.98 316.43H103.86V323.14H121.98V316.43Z" fill="white"/>
<path d="M182.82 342.91H78.01V375.79H182.82V342.91Z" fill="#407BFF"/>
<path opacity="0.3" d="M182.82 342.91H172.93V375.79H182.82V342.91Z" fill="black"/>
<path d="M110.45 363.552L114.884 353.697H116.686L121.135 363.552H119.22L115.405 354.668H116.137L112.336 363.552H110.45ZM112.491 361.271L112.984 359.835H118.305L118.798 361.271H112.491ZM122.219 363.552V353.106H123.979V363.552H122.219ZM129.471 363.65C128.832 363.65 128.269 363.533 127.781 363.298C127.293 363.054 126.913 362.688 126.641 362.2C126.369 361.703 126.233 361.079 126.233 360.328V356.034H127.992V360.089C127.992 360.764 128.143 361.271 128.443 361.609C128.753 361.937 129.189 362.102 129.752 362.102C130.165 362.102 130.522 362.017 130.822 361.848C131.132 361.679 131.371 361.426 131.54 361.088C131.718 360.75 131.808 360.333 131.808 359.835V356.034H133.567V363.552H131.892V361.524L132.188 362.144C131.934 362.632 131.564 363.007 131.075 363.27C130.587 363.524 130.052 363.65 129.471 363.65ZM139.278 366.381C138.584 366.381 137.903 366.288 137.237 366.1C136.58 365.922 136.04 365.659 135.618 365.312L136.406 363.988C136.735 364.26 137.148 364.476 137.645 364.636C138.152 364.805 138.664 364.889 139.18 364.889C140.006 364.889 140.611 364.697 140.996 364.312C141.381 363.937 141.573 363.369 141.573 362.609V361.271L141.714 359.568L141.658 357.864V356.034H143.333V362.411C143.333 363.772 142.986 364.772 142.291 365.41C141.597 366.058 140.592 366.381 139.278 366.381ZM139.053 363.214C138.34 363.214 137.692 363.064 137.11 362.763C136.538 362.454 136.083 362.027 135.745 361.482C135.416 360.938 135.252 360.3 135.252 359.568C135.252 358.845 135.416 358.211 135.745 357.667C136.083 357.123 136.538 356.7 137.11 356.4C137.692 356.1 138.34 355.949 139.053 355.949C139.691 355.949 140.264 356.076 140.771 356.33C141.277 356.583 141.681 356.977 141.981 357.512C142.291 358.047 142.446 358.732 142.446 359.568C142.446 360.403 142.291 361.093 141.981 361.637C141.681 362.172 141.277 362.571 140.771 362.834C140.264 363.087 139.691 363.214 139.053 363.214ZM139.321 361.722C139.762 361.722 140.156 361.632 140.503 361.454C140.85 361.266 141.118 361.013 141.306 360.694C141.503 360.365 141.601 359.99 141.601 359.568C141.601 359.145 141.503 358.775 141.306 358.455C141.118 358.127 140.85 357.878 140.503 357.709C140.156 357.531 139.762 357.442 139.321 357.442C138.879 357.442 138.481 357.531 138.124 357.709C137.777 357.878 137.505 358.127 137.307 358.455C137.12 358.775 137.026 359.145 137.026 359.568C137.026 359.99 137.12 360.365 137.307 360.694C137.505 361.013 137.777 361.266 138.124 361.454C138.481 361.632 138.879 361.722 139.321 361.722ZM150.278 363.552V362.031L150.18 361.708V359.047C150.18 358.531 150.025 358.132 149.715 357.85C149.405 357.559 148.936 357.414 148.307 357.414C147.885 357.414 147.467 357.479 147.054 357.611C146.651 357.742 146.308 357.925 146.027 358.16L145.337 356.879C145.74 356.569 146.219 356.339 146.773 356.189C147.336 356.029 147.918 355.949 148.518 355.949C149.607 355.949 150.447 356.212 151.038 356.738C151.639 357.254 151.939 358.057 151.939 359.145V363.552H150.278ZM147.913 363.65C147.35 363.65 146.857 363.556 146.435 363.369C146.013 363.172 145.684 362.904 145.449 362.566C145.224 362.219 145.112 361.83 145.112 361.398C145.112 360.975 145.21 360.595 145.407 360.257C145.614 359.92 145.947 359.652 146.407 359.455C146.867 359.258 147.477 359.159 148.237 359.159H150.419V360.328H148.364C147.763 360.328 147.359 360.426 147.153 360.623C146.946 360.811 146.843 361.046 146.843 361.327C146.843 361.646 146.97 361.9 147.223 362.088C147.477 362.275 147.829 362.369 148.279 362.369C148.711 362.369 149.096 362.271 149.434 362.074C149.781 361.876 150.03 361.585 150.18 361.201L150.475 362.257C150.306 362.698 150.001 363.04 149.56 363.284C149.129 363.528 148.579 363.65 147.913 363.65ZM154.198 363.552V356.034H155.873V358.103L155.676 357.498C155.901 356.991 156.253 356.606 156.732 356.344C157.22 356.081 157.825 355.949 158.548 355.949V357.625C158.473 357.606 158.403 357.597 158.337 357.597C158.271 357.587 158.206 357.583 158.14 357.583C157.473 357.583 156.943 357.78 156.549 358.174C156.155 358.559 155.958 359.136 155.958 359.905V363.552H154.198Z" fill="white"/>
<path d="M81.89 301.27C83.4193 299.855 85.4372 299.087 87.5203 299.127C89.6035 299.168 91.5901 300.013 93.0634 301.487C94.5367 302.96 95.3823 304.947 95.4226 307.03C95.463 309.113 94.6951 311.131 93.28 312.66L88.73 317.21C88.4262 317.514 88.0144 317.684 87.585 317.684C87.1556 317.684 86.7438 317.514 86.44 317.21L81.89 312.66C80.3811 311.149 79.5336 309.101 79.5336 306.965C79.5336 304.829 80.3811 302.781 81.89 301.27ZM87.59 310.71C88.331 310.71 89.0552 310.49 89.6709 310.078C90.2866 309.665 90.7659 309.079 91.0481 308.394C91.3303 307.709 91.4025 306.956 91.2558 306.229C91.109 305.503 90.7498 304.837 90.2238 304.315C89.6977 303.793 89.0285 303.439 88.3011 303.298C87.5736 303.157 86.8207 303.236 86.1379 303.523C85.455 303.811 84.873 304.295 84.4657 304.914C84.0583 305.533 83.8441 306.259 83.85 307C83.85 307.491 83.9468 307.977 84.1349 308.43C84.323 308.883 84.5986 309.295 84.946 309.641C85.2934 309.988 85.7058 310.262 86.1595 310.449C86.6132 310.636 87.0993 310.731 87.59 310.73V310.71Z" fill="#263238"/>
<path opacity="0.7" d="M81.89 301.27C83.4193 299.855 85.4372 299.087 87.5203 299.127C89.6035 299.168 91.5901 300.013 93.0634 301.487C94.5367 302.96 95.3823 304.947 95.4226 307.03C95.463 309.113 94.6951 311.131 93.28 312.66L88.73 317.21C88.4262 317.514 88.0144 317.684 87.585 317.684C87.1556 317.684 86.7438 317.514 86.44 317.21L81.89 312.66C80.3811 311.149 79.5336 309.101 79.5336 306.965C79.5336 304.829 80.3811 302.781 81.89 301.27ZM87.59 310.71C88.331 310.71 89.0552 310.49 89.6709 310.078C90.2866 309.665 90.7659 309.079 91.0481 308.394C91.3303 307.709 91.4025 306.956 91.2558 306.229C91.109 305.503 90.7498 304.837 90.2238 304.315C89.6977 303.793 89.0285 303.439 88.3011 303.298C87.5736 303.157 86.8207 303.236 86.1379 303.523C85.455 303.811 84.873 304.295 84.4657 304.914C84.0583 305.533 83.8441 306.259 83.85 307C83.85 307.491 83.9468 307.977 84.1349 308.43C84.323 308.883 84.5986 309.295 84.946 309.641C85.2934 309.988 85.7058 310.262 86.1595 310.449C86.6132 310.636 87.0993 310.731 87.59 310.73V310.71Z" fill="white"/>
<path d="M74.7 253.58L69.7 253.03L66.82 254.21C66.5225 254.334 66.2576 254.524 66.046 254.767C65.8343 255.01 65.6817 255.298 65.6 255.61C65.5087 255.976 65.5624 256.363 65.75 256.69V256.78C65.9075 257.05 66.1418 257.268 66.4231 257.405C66.7043 257.542 67.02 257.593 67.33 257.55L70.22 257.15C70.4994 257.109 70.7641 256.999 70.99 256.83L74.32 254.31L74.7 253.58Z" fill="white"/>
<path d="M392.763 196.072C393.792 184.403 385.167 174.109 373.498 173.08C361.83 172.051 351.536 180.676 350.507 192.345C349.478 204.014 358.103 214.307 369.772 215.336C381.44 216.365 391.734 207.74 392.763 196.072Z" fill="#407BFF"/>
<path d="M379.98 208.61L378.51 213.87L384.59 217.11L385.33 210.37L379.98 208.61Z" fill="#407BFF"/>
<path d="M397.5 193.46C397.435 193.452 397.374 193.42 397.332 193.37C397.289 193.32 397.267 193.256 397.27 193.19C397.416 189.778 396.721 186.383 395.246 183.303C393.77 180.224 391.56 177.554 388.81 175.53C388.783 175.511 388.76 175.487 388.742 175.459C388.725 175.431 388.713 175.4 388.707 175.367C388.701 175.335 388.702 175.302 388.71 175.269C388.717 175.237 388.731 175.207 388.75 175.18C388.769 175.153 388.793 175.13 388.821 175.112C388.849 175.095 388.88 175.083 388.912 175.077C388.945 175.071 388.978 175.072 389.011 175.08C389.043 175.087 389.073 175.101 389.1 175.12C391.919 177.195 394.184 179.931 395.696 183.087C397.207 186.244 397.92 189.723 397.77 193.22C397.769 193.254 397.761 193.287 397.746 193.317C397.732 193.348 397.711 193.375 397.686 193.398C397.661 193.42 397.632 193.437 397.6 193.448C397.567 193.459 397.534 193.463 397.5 193.46Z" fill="#407BFF"/>
<path d="M396.58 199.69H396.49C396.459 199.678 396.43 199.66 396.406 199.636C396.382 199.613 396.363 199.585 396.35 199.555C396.337 199.524 396.33 199.491 396.33 199.457C396.33 199.424 396.337 199.391 396.35 199.36C396.744 198.41 396.934 197.388 396.91 196.36C396.91 196.294 396.936 196.23 396.983 196.183C397.03 196.136 397.094 196.11 397.16 196.11C397.192 196.109 397.225 196.114 397.255 196.125C397.285 196.137 397.313 196.154 397.336 196.177C397.36 196.199 397.378 196.226 397.391 196.256C397.404 196.286 397.41 196.318 397.41 196.35C397.434 197.44 397.229 198.523 396.81 199.53C396.792 199.577 396.761 199.617 396.72 199.645C396.679 199.674 396.63 199.689 396.58 199.69Z" fill="#407BFF"/>
<path d="M371.26 203.16L360.58 196.02L363.07 192.29L370.23 197.08L379.14 185.29L382.72 187.99L371.26 203.16Z" fill="white"/>
<path d="M695.64 402.19L201.03 413.79V329.19H700.4L695.64 402.19Z" fill="#263238"/>
<path opacity="0.5" d="M695.64 402.19L201.03 413.79V329.19H700.4L695.64 402.19Z" fill="black"/>
<path d="M182.01 350.9V393.8C182.012 398.274 183.447 402.63 186.105 406.229C188.763 409.828 192.504 412.482 196.78 413.8L200.27 414.86C202.425 415.528 204.674 415.842 206.93 415.79L230.03 415.25C227.571 406.653 227.115 397.607 228.696 388.807C230.277 380.006 233.854 371.685 239.152 364.482C244.45 357.279 251.328 351.386 259.258 347.255C267.188 343.124 275.959 340.866 284.898 340.653C293.837 340.439 302.706 342.278 310.824 346.026C318.942 349.774 326.093 355.332 331.729 362.275C337.364 369.217 341.333 377.358 343.332 386.073C345.331 394.788 345.307 403.846 343.26 412.55L578.26 406.96C577.877 404.217 577.693 401.45 577.71 398.68C577.543 390.87 578.941 383.105 581.822 375.844C584.703 368.583 589.009 361.972 594.485 356.401C599.962 350.83 606.498 346.413 613.709 343.408C620.92 340.403 628.66 338.873 636.472 338.907C644.283 338.941 652.009 340.539 659.194 343.606C666.379 346.674 672.876 351.148 678.304 356.767C683.732 362.385 687.98 369.033 690.797 376.319C693.615 383.605 694.945 391.382 694.71 399.19C694.71 400.33 694.61 401.45 694.61 402.58C694.92 402.45 695.24 402.33 695.55 402.18L703.55 398.59C707.427 396.831 710.715 393.993 713.021 390.414C715.326 386.835 716.552 382.667 716.55 378.41V291.05C716.552 287.018 715.451 283.062 713.366 279.61C711.28 276.159 708.29 273.344 704.72 271.47L644.5 239.7C643.957 239.411 643.508 238.97 643.21 238.432C642.911 237.893 642.775 237.28 642.817 236.665C642.859 236.051 643.079 235.462 643.448 234.97C643.818 234.477 644.322 234.102 644.9 233.89L652.29 231.24C652.661 231.117 652.979 230.87 653.191 230.542C653.404 230.214 653.498 229.823 653.458 229.434C653.419 229.045 653.248 228.681 652.973 228.402C652.699 228.123 652.338 227.946 651.95 227.9C623.25 223.9 511.6 209.3 452.95 216.47C385.25 224.76 320.37 283.47 320.37 283.47C270.5 281.64 223.97 299 203.95 307.69C200.754 309.085 197.885 311.132 195.527 313.702C193.169 316.271 191.375 319.306 190.26 322.61L183.41 342.91C182.511 345.479 182.039 348.178 182.01 350.9Z" fill="#407BFF"/>
<path d="M578.37 407C578.03 404.424 577.86 401.828 577.86 399.23C577.86 397.9 577.86 396.59 577.99 395.29L535.5 377.88C533.013 376.869 530.33 376.432 527.65 376.6L379.81 386.3C377.393 386.454 375.034 387.104 372.88 388.21L344.79 402.66C344.589 405.997 344.111 409.312 343.36 412.57L578.37 407Z" fill="#263238"/>
<path d="M716.72 378.43V376.2L692.72 383.56C694.12 388.659 694.83 393.922 694.83 399.21C694.83 400.35 694.73 401.47 694.73 402.6C695.04 402.47 695.36 402.35 695.67 402.2L703.73 398.61C707.605 396.85 710.891 394.011 713.195 390.432C715.499 386.853 716.722 382.686 716.72 378.43Z" fill="#263238"/>
<path d="M188.83 409.2C191.121 411.315 193.853 412.893 196.83 413.82L200.33 414.88C202.482 415.548 204.728 415.862 206.98 415.81L230.08 415.27C229.245 412.349 228.644 409.366 228.28 406.35L188.83 409.2Z" fill="#263238"/>
<path d="M636.43 335.19C627.354 335.187 618.381 337.114 610.107 340.844C601.832 344.573 594.446 350.02 588.438 356.823C582.43 363.625 577.937 371.628 575.258 380.3C572.579 388.972 571.775 398.114 572.9 407.12L578.5 407C578.117 404.257 577.933 401.49 577.95 398.72C577.783 390.91 579.181 383.145 582.062 375.884C584.943 368.623 589.249 362.012 594.725 356.441C600.202 350.87 606.738 346.453 613.949 343.448C621.16 340.443 628.9 338.913 636.712 338.947C644.523 338.981 652.249 340.579 659.434 343.646C666.619 346.714 673.116 351.188 678.544 356.807C683.972 362.425 688.22 369.073 691.037 376.359C693.855 383.645 695.185 391.422 694.95 399.23C694.95 400.37 694.86 401.49 694.86 402.62C695.17 402.49 695.49 402.37 695.8 402.22L700.42 400.12V399.23C700.396 382.263 693.646 365.999 681.649 354.001C669.651 342.004 653.386 335.254 636.42 335.23L636.43 335.19Z" fill="#263238"/>
<path d="M286.37 335.19C276.578 335.177 266.913 337.411 258.121 341.721C249.328 346.03 241.641 352.299 235.652 360.047C229.663 367.794 225.531 376.812 223.575 386.406C221.62 396.001 221.891 405.917 224.37 415.39L230.05 415.27C227.594 406.674 227.141 397.63 228.724 388.831C230.307 380.033 233.885 371.714 239.183 364.513C244.482 357.313 251.359 351.422 259.288 347.292C267.217 343.163 275.987 340.905 284.924 340.692C293.861 340.479 302.729 342.316 310.845 346.063C318.962 349.81 326.113 355.366 331.748 362.306C337.383 369.246 341.354 377.385 343.354 386.098C345.355 394.811 345.333 403.867 343.29 412.57L348.96 412.44C350.933 403.115 350.799 393.467 348.567 384.201C346.334 374.935 342.061 366.284 336.057 358.881C330.054 351.477 322.473 345.508 313.868 341.41C305.263 337.311 295.851 335.186 286.32 335.19H286.37Z" fill="#263238"/>
<path d="M342.08 286C341.378 286.612 340.897 287.438 340.71 288.35C340.45 289.365 340.578 290.441 341.07 291.366C341.563 292.291 342.383 292.999 343.37 293.35L367.8 300.2C369.954 300.809 372.209 300.979 374.43 300.7L555.6 278.25C560.142 277.617 564.287 275.318 567.23 271.8L590.99 244.11C591.808 243.16 592.308 241.978 592.42 240.73C592.74 237.58 590.77 234.73 588 234.38C544.62 228.63 489.77 223.38 455.14 227.63C409.75 233.17 364.04 267.29 342.08 286Z" fill="#407BFF"/>
<path opacity="0.8" d="M342.9 286C342.195 286.611 341.71 287.437 341.52 288.35C341.263 289.366 341.394 290.442 341.887 291.367C342.381 292.291 343.202 292.999 344.19 293.35L368.62 300.2C370.774 300.809 373.029 300.979 375.25 300.7L552.36 288.56C556.77 288 563.58 279.89 568.36 273.32L591.77 244.11C592.578 243.154 593.077 241.975 593.2 240.73C593.52 237.58 591.54 234.73 588.78 234.38C545.4 228.63 490.55 223.38 455.91 227.63C410.56 233.17 364.86 267.29 342.9 286Z" fill="white"/>
<g opacity="0.3">
<path d="M461.24 303.23C460.964 303.131 460.71 302.978 460.493 302.78C460.277 302.582 460.101 302.344 459.976 302.078C459.852 301.812 459.781 301.525 459.768 301.232C459.755 300.939 459.8 300.646 459.9 300.37C460.149 299.667 460.604 299.055 461.205 298.613C461.805 298.171 462.525 297.919 463.27 297.89L484.83 296.98C485.122 296.968 485.414 297.012 485.69 297.11C485.969 297.21 486.225 297.363 486.444 297.562C486.663 297.761 486.841 298 486.967 298.268C487.094 298.535 487.166 298.825 487.18 299.121C487.194 299.416 487.15 299.712 487.05 299.99C486.792 300.692 486.333 301.301 485.73 301.743C485.127 302.184 484.407 302.437 483.66 302.47L462.1 303.36C461.808 303.372 461.516 303.327 461.24 303.23Z" fill="black"/>
</g>
<path d="M621.58 241.46C621.126 241.863 620.756 242.351 620.491 242.897C620.226 243.443 620.072 244.035 620.036 244.641C620.001 245.247 620.086 245.854 620.285 246.427C620.485 247 620.796 247.527 621.2 247.98L626.31 253.54C626.898 254.164 627.645 254.617 628.47 254.85L691.1 272.22C692.19 272.51 693.312 272.661 694.44 272.67H706.88C706.237 272.231 705.569 271.831 704.88 271.47L644.5 239.66C644.138 239.481 643.814 239.233 643.548 238.929C643.282 238.625 643.079 238.271 642.95 237.888C642.821 237.506 642.768 237.101 642.796 236.698C642.823 236.295 642.93 235.902 643.11 235.54L623.5 240.45C622.79 240.631 622.132 240.977 621.58 241.46Z" fill="#407BFF"/>
<path d="M231.57 315.86L210.2 313.53L197.93 318.53C196.654 319.053 195.518 319.868 194.615 320.91C193.712 321.952 193.066 323.192 192.73 324.53C192.328 326.093 192.554 327.752 193.36 329.15L193.58 329.52C194.249 330.677 195.247 331.609 196.447 332.197C197.648 332.784 198.996 333.001 200.32 332.82L212.64 331.12C213.841 330.95 214.98 330.479 215.95 329.75L230.17 319L231.57 315.86Z" fill="white"/>
<path d="M320.35 283.48L323.75 284.48C325.052 284.849 326.425 284.894 327.748 284.61C329.071 284.325 330.304 283.721 331.34 282.85C351.15 266.09 385.58 240.39 422.74 228.41C422.904 228.353 423.042 228.24 423.13 228.09C423.176 228.01 423.205 227.922 423.216 227.831C423.228 227.739 423.22 227.647 423.195 227.558C423.17 227.47 423.127 227.387 423.07 227.315C423.012 227.243 422.941 227.184 422.86 227.14L418.24 224.77C364.64 243.33 320.35 283.48 320.35 283.48Z" fill="#407BFF"/>
<path opacity="0.8" d="M320.35 283.48L323.75 284.48C325.052 284.849 326.425 284.894 327.748 284.61C329.071 284.325 330.304 283.721 331.34 282.85C351.15 266.09 385.58 240.39 422.74 228.41C422.904 228.353 423.042 228.24 423.13 228.09C423.176 228.01 423.205 227.922 423.216 227.831C423.228 227.739 423.22 227.647 423.195 227.558C423.17 227.47 423.127 227.387 423.07 227.315C423.012 227.243 422.941 227.184 422.86 227.14L418.24 224.77C364.64 243.33 320.35 283.48 320.35 283.48Z" fill="white"/>
<path opacity="0.2" d="M523.44 306.1L343.34 319L346.73 341.21C347.77 348.009 350.293 354.495 354.12 360.21L369.17 382.71L522.89 361.92L595.56 306.1H523.44Z" fill="white"/>
<path d="M636.37 447.96C663.299 447.96 685.13 426.129 685.13 399.2C685.13 372.271 663.299 350.44 636.37 350.44C609.441 350.44 587.61 372.271 587.61 399.2C587.61 426.129 609.441 447.96 636.37 447.96Z" fill="#263238"/>
<path opacity="0.4" d="M636.37 429.09C652.878 429.09 666.26 415.708 666.26 399.2C666.26 382.692 652.878 369.31 636.37 369.31C619.862 369.31 606.48 382.692 606.48 399.2C606.48 415.708 619.862 429.09 636.37 429.09Z" fill="white"/>
<g opacity="0.3">
<path d="M636.38 372.32H636.37C635.05 372.32 633.98 373.39 633.98 374.71V390.03C633.98 391.35 635.05 392.42 636.37 392.42H636.38C637.7 392.42 638.77 391.35 638.77 390.03V374.71C638.77 373.39 637.7 372.32 636.38 372.32Z" fill="white"/>
</g>
<g opacity="0.3">
<path d="M636.38 406H636.37C635.05 406 633.98 407.07 633.98 408.39V423.71C633.98 425.03 635.05 426.1 636.37 426.1H636.38C637.7 426.1 638.77 425.03 638.77 423.71V408.39C638.77 407.07 637.7 406 636.38 406Z" fill="white"/>
</g>
<g opacity="0.3">
<path d="M645.5 396.7C645.227 396.855 644.926 396.955 644.614 396.994C644.303 397.032 643.986 397.009 643.683 396.926C643.381 396.842 643.097 396.7 642.85 396.507C642.602 396.313 642.395 396.073 642.24 395.8C641.925 395.251 641.841 394.599 642.006 393.988C642.171 393.377 642.571 392.856 643.12 392.54L656.38 384.84C656.653 384.682 656.955 384.58 657.267 384.539C657.58 384.498 657.898 384.518 658.202 384.6C658.507 384.682 658.793 384.823 659.043 385.015C659.293 385.207 659.503 385.447 659.66 385.72C659.972 386.27 660.055 386.921 659.89 387.531C659.725 388.141 659.327 388.662 658.78 388.98L645.5 396.68V396.7Z" fill="white"/>
</g>
<g opacity="0.3">
<path d="M616.34 413.47C615.791 413.785 615.139 413.869 614.528 413.704C613.917 413.539 613.396 413.139 613.08 412.59C612.924 412.319 612.824 412.02 612.783 411.71C612.743 411.399 612.765 411.084 612.847 410.783C612.928 410.481 613.069 410.198 613.26 409.951C613.451 409.703 613.689 409.496 613.96 409.34L627.22 401.64C627.769 401.324 628.422 401.238 629.034 401.401C629.647 401.564 630.17 401.962 630.49 402.51C630.807 403.061 630.893 403.715 630.73 404.329C630.567 404.943 630.168 405.468 629.62 405.79L616.35 413.49L616.34 413.47Z" fill="white"/>
</g>
<g opacity="0.3">
<path d="M656.39 413.53L643.13 405.83C642.857 405.673 642.617 405.463 642.425 405.213C642.233 404.963 642.092 404.677 642.01 404.372C641.928 404.068 641.908 403.75 641.949 403.437C641.99 403.125 642.092 402.823 642.25 402.55C642.571 402.001 643.097 401.603 643.712 401.442C644.327 401.28 644.981 401.37 645.53 401.69L658.79 409.39C659.337 409.708 659.736 410.229 659.9 410.839C660.065 411.449 659.982 412.1 659.67 412.65C659.513 412.923 659.303 413.163 659.053 413.355C658.803 413.547 658.517 413.688 658.212 413.77C657.908 413.852 657.59 413.872 657.277 413.831C656.965 413.79 656.663 413.688 656.39 413.53Z" fill="white"/>
</g>
<g opacity="0.3">
<path d="M630.5 395.81C630.182 396.357 629.661 396.755 629.05 396.919C628.439 397.082 627.788 396.996 627.24 396.68L613.96 389C613.413 388.682 613.015 388.161 612.852 387.55C612.688 386.939 612.774 386.288 613.09 385.74C613.408 385.193 613.929 384.795 614.54 384.631C615.151 384.468 615.802 384.554 616.35 384.87L629.62 392.57C630.167 392.888 630.565 393.409 630.729 394.02C630.892 394.631 630.806 395.282 630.49 395.83L630.5 395.81Z" fill="white"/>
</g>
<path d="M632.36 399.19C632.36 398.129 632.781 397.112 633.532 396.362C634.282 395.611 635.299 395.19 636.36 395.19C637.151 395.19 637.924 395.425 638.582 395.864C639.24 396.304 639.753 396.928 640.056 397.659C640.358 398.39 640.437 399.194 640.283 399.97C640.129 400.746 639.748 401.459 639.188 402.018C638.629 402.578 637.916 402.959 637.14 403.113C636.364 403.267 635.56 403.188 634.829 402.886C634.098 402.583 633.474 402.07 633.034 401.412C632.595 400.754 632.36 399.981 632.36 399.19Z" fill="#263238"/>
<path d="M286.37 447.97C313.299 447.97 335.13 426.139 335.13 399.21C335.13 372.281 313.299 350.45 286.37 350.45C259.441 350.45 237.61 372.281 237.61 399.21C237.61 426.139 259.441 447.97 286.37 447.97Z" fill="#263238"/>
<path opacity="0.4" d="M286.37 429.1C302.878 429.1 316.26 415.718 316.26 399.21C316.26 382.702 302.878 369.32 286.37 369.32C269.862 369.32 256.48 382.702 256.48 399.21C256.48 415.718 269.862 429.1 286.37 429.1Z" fill="white"/>
<g opacity="0.3">
<path d="M286.37 372.32H286.36C285.04 372.32 283.97 373.39 283.97 374.71V390.03C283.97 391.35 285.04 392.42 286.36 392.42H286.37C287.69 392.42 288.76 391.35 288.76 390.03V374.71C288.76 373.39 287.69 372.32 286.37 372.32Z" fill="white"/>
</g>
<g opacity="0.3">
<path d="M286.37 406H286.36C285.04 406 283.97 407.07 283.97 408.39V423.71C283.97 425.03 285.04 426.1 286.36 426.1H286.37C287.69 426.1 288.76 425.03 288.76 423.71V408.39C288.76 407.07 287.69 406 286.37 406Z" fill="white"/>
</g>
<g opacity="0.3">
<path d="M295.5 396.7C295.229 396.854 294.93 396.954 294.621 396.992C294.312 397.03 293.998 397.007 293.697 396.923C293.397 396.84 293.116 396.697 292.871 396.505C292.626 396.312 292.422 396.072 292.27 395.8C292.111 395.53 292.006 395.231 291.963 394.92C291.92 394.61 291.939 394.294 292.019 393.99C292.099 393.687 292.239 393.403 292.429 393.154C292.62 392.905 292.858 392.696 293.13 392.54L306.4 384.84C306.672 384.683 306.972 384.581 307.283 384.54C307.594 384.499 307.91 384.52 308.213 384.602C308.516 384.684 308.8 384.824 309.048 385.016C309.297 385.208 309.504 385.447 309.66 385.72C309.817 385.992 309.919 386.292 309.96 386.603C310.001 386.914 309.98 387.23 309.898 387.533C309.816 387.836 309.676 388.12 309.484 388.368C309.292 388.617 309.053 388.824 308.78 388.98L295.5 396.68V396.7Z" fill="white"/>
</g>
<g opacity="0.3">
<path d="M263.07 412.59C262.914 412.319 262.813 412.02 262.773 411.71C262.733 411.399 262.755 411.084 262.837 410.783C262.918 410.481 263.059 410.198 263.25 409.951C263.441 409.703 263.679 409.496 263.95 409.34L277.21 401.64C277.759 401.32 278.413 401.23 279.028 401.392C279.643 401.553 280.169 401.951 280.49 402.5C280.648 402.773 280.75 403.075 280.791 403.387C280.832 403.7 280.812 404.018 280.73 404.322C280.648 404.627 280.507 404.913 280.315 405.163C280.123 405.413 279.883 405.623 279.61 405.78L266.35 413.48C265.797 413.795 265.141 413.878 264.526 413.712C263.912 413.545 263.388 413.142 263.07 412.59Z" fill="white"/>
</g>
<g opacity="0.3">
<path d="M309.65 412.66C309.332 413.207 308.811 413.605 308.2 413.769C307.589 413.932 306.938 413.846 306.39 413.53L293.12 405.83C292.571 405.509 292.173 404.983 292.012 404.368C291.85 403.753 291.94 403.099 292.26 402.55C292.416 402.278 292.625 402.04 292.874 401.849C293.123 401.659 293.407 401.519 293.71 401.439C294.014 401.359 294.33 401.34 294.64 401.383C294.951 401.426 295.25 401.531 295.52 401.69L308.78 409.39C309.327 409.708 309.725 410.229 309.889 410.84C310.052 411.451 309.966 412.102 309.65 412.65V412.66Z" fill="white"/>
</g>
<g opacity="0.3">
<path d="M280.5 395.83C280.179 396.376 279.654 396.772 279.041 396.932C278.428 397.091 277.776 397.001 277.23 396.68L263.95 389C263.677 388.844 263.438 388.637 263.246 388.388C263.054 388.14 262.914 387.856 262.832 387.553C262.75 387.25 262.729 386.934 262.77 386.623C262.811 386.312 262.913 386.012 263.07 385.74C263.39 385.19 263.914 384.789 264.529 384.624C265.143 384.459 265.798 384.544 266.35 384.86L279.61 392.56C280.157 392.878 280.555 393.399 280.718 394.01C280.882 394.621 280.796 395.272 280.48 395.82L280.5 395.83Z" fill="white"/>
</g>
<path d="M286.37 395.19C287.161 395.19 287.934 395.425 288.592 395.864C289.25 396.304 289.763 396.928 290.066 397.659C290.368 398.39 290.447 399.194 290.293 399.97C290.139 400.746 289.758 401.459 289.198 402.018C288.639 402.578 287.926 402.959 287.15 403.113C286.374 403.267 285.57 403.188 284.839 402.886C284.108 402.583 283.484 402.07 283.044 401.412C282.605 400.754 282.37 399.981 282.37 399.19C282.37 398.129 282.791 397.112 283.542 396.362C284.292 395.611 285.309 395.19 286.37 395.19Z" fill="#263238"/>
<path opacity="0.3" d="M711.61 307.23C712.386 306.982 713.032 306.437 713.407 305.713C713.782 304.99 713.855 304.147 713.61 303.37C713.05 293.11 710.87 283.97 704.61 277.68C704.407 277.01 703.981 276.429 703.402 276.035C702.824 275.64 702.128 275.455 701.43 275.51L664.25 279C663.681 279.053 663.138 279.264 662.682 279.608C662.226 279.952 661.875 280.416 661.667 280.948C661.46 281.48 661.404 282.06 661.507 282.622C661.61 283.184 661.867 283.706 662.25 284.13L672.89 295.6C673.26 295.998 673.73 296.292 674.25 296.45L709.82 307.23C710.404 307.403 711.026 307.403 711.61 307.23Z" fill="black"/>
<path d="M340.71 288.3C340.45 289.315 340.578 290.391 341.07 291.316C341.563 292.241 342.383 292.949 343.37 293.3L367.81 300.15C370.015 300.824 372.297 301.214 374.6 301.31L382.29 300.8L375.03 261.6C358.28 272.6 357.13 273.11 342.08 285.92C341.373 286.54 340.891 287.377 340.71 288.3Z" fill="#263238"/>
<path d="M499.87 226.37L484.5 293.3L504.58 291.85L513.77 227C509.07 226.72 504.437 226.51 499.87 226.37Z" fill="#263238"/>
<path d="M563.58 279.34L591.78 244.11C592.612 243.146 593.122 241.947 593.24 240.68C593.55 237.53 591.57 234.68 588.81 234.35C583.03 233.56 576.88 232.81 570.73 232.07" fill="#263238"/>
<path d="M362.93 295.11C361.769 295.125 360.616 294.91 359.538 294.478C358.46 294.047 357.477 293.407 356.647 292.595C355.816 291.783 355.154 290.815 354.698 289.747C354.242 288.679 354.002 287.531 353.99 286.37C353.967 284.355 354.632 282.392 355.876 280.807C357.12 279.221 358.867 278.108 360.83 277.65L372.61 274.89L375.61 294.63L363.17 295.1L362.93 295.11Z" fill="#407BFF"/>
<path opacity="0.3" d="M372.15 294.76L375.6 294.63L372.61 274.89L369.24 275.69L372.15 294.76Z" fill="black"/>
<path opacity="0.6" d="M488.85 379.4H488.8C488.768 379.393 488.737 379.379 488.71 379.361C488.683 379.342 488.66 379.317 488.643 379.29C488.625 379.262 488.613 379.231 488.607 379.198C488.602 379.165 488.603 379.132 488.61 379.1C488.74 378.49 501.61 318.1 503.26 309.84C503.89 306.69 504.12 300.64 503.93 291.84C503.93 291.774 503.956 291.71 504.003 291.663C504.05 291.616 504.114 291.59 504.18 291.59C504.245 291.59 504.307 291.615 504.353 291.66C504.4 291.704 504.427 291.765 504.43 291.83C504.62 300.64 504.43 306.72 503.75 309.91C502.1 318.15 489.23 378.57 489.1 379.18C489.091 379.24 489.061 379.295 489.015 379.335C488.969 379.375 488.911 379.398 488.85 379.4Z" fill="black"/>
<path opacity="0.6" d="M372.86 388.46C372.819 388.46 372.778 388.449 372.742 388.43C372.705 388.411 372.674 388.384 372.65 388.35C372.49 388.1 355.88 363.52 350.17 353.24C344.3 342.66 340.51 291.95 340.35 289.79C340.347 289.725 340.37 289.662 340.412 289.614C340.455 289.565 340.515 289.535 340.58 289.53C340.613 289.526 340.647 289.529 340.679 289.538C340.711 289.548 340.74 289.564 340.766 289.585C340.791 289.607 340.812 289.634 340.826 289.664C340.841 289.694 340.849 289.727 340.85 289.76C340.85 290.28 344.79 342.51 350.61 353C356.3 363.26 372.9 387.83 373.07 388.07C373.105 388.126 373.118 388.194 373.105 388.259C373.092 388.324 373.054 388.382 373 388.42C372.959 388.448 372.91 388.462 372.86 388.46Z" fill="black"/>
<path opacity="0.6" d="M210.2 313.78C210.151 313.78 210.103 313.766 210.063 313.739C210.022 313.713 209.99 313.675 209.97 313.63C209.947 313.568 209.948 313.498 209.974 313.437C210 313.376 210.049 313.326 210.11 313.3C222.85 308.09 263.68 298.3 273.26 296.73C285.33 294.8 326.57 284.62 326.98 284.52C327.046 284.505 327.116 284.516 327.174 284.552C327.232 284.587 327.273 284.644 327.29 284.71C327.297 284.742 327.298 284.775 327.293 284.808C327.287 284.841 327.275 284.872 327.258 284.9C327.24 284.927 327.217 284.952 327.19 284.971C327.163 284.989 327.132 285.003 327.1 285.01C326.69 285.11 285.43 295.29 273.34 297.23C264.04 298.72 222.72 308.68 210.34 313.77L210.2 313.78Z" fill="black"/>
<path opacity="0.8" d="M621.58 241.46C621.126 241.863 620.756 242.351 620.491 242.897C620.226 243.443 620.072 244.035 620.036 244.641C620.001 245.247 620.086 245.854 620.285 246.427C620.485 247 620.796 247.527 621.2 247.98L626.31 253.54C626.898 254.164 627.645 254.617 628.47 254.85L691.1 272.22C692.19 272.51 693.312 272.661 694.44 272.67H706.88C706.237 272.231 705.569 271.831 704.88 271.47L644.5 239.66C644.138 239.481 643.814 239.233 643.548 238.929C643.282 238.625 643.079 238.271 642.95 237.888C642.821 237.506 642.768 237.101 642.796 236.698C642.823 236.295 642.93 235.902 643.11 235.54L623.5 240.45C622.79 240.631 622.132 240.977 621.58 241.46Z" fill="white"/>
<path d="M414.15 268C414.15 268 421.63 294.32 425.27 295.25C431.85 296.95 454.11 293.13 453.67 292.39L451.84 283.12C451.84 283.12 429.12 281.49 428.65 281.67L421.44 265.17L414.15 268Z" fill="#E1715B"/>
<path d="M421.5 269.8C421.5 269.8 423.77 267.69 423.83 265.12C423.89 262.55 424.62 260.53 424.54 258.62C424.46 256.71 422.86 258.74 422.23 259.99C421.6 261.24 420.87 262.65 420 261.99C419.13 261.33 415.4 252.99 414.1 252.28C412.8 251.57 412.99 253.09 412.99 253.09C412.99 253.09 411.99 251.09 411.13 251.25C410.9 251.25 410.42 251.77 410.72 252.75C411.39 254.96 413.03 259.53 413.03 259.53C412.94 259.27 410.51 253.77 410.03 253C409.42 252 408.61 251.82 408.03 252.2C407.22 252.73 410.03 259.64 409.9 260.02C409.9 260.02 408.44 256.02 407.19 255.79C405.94 255.56 406.73 258.19 407.85 260.34C408.85 262.34 410.39 266.45 411.63 268.34C413.16 270.68 414.72 271.91 417.31 271.51C418.831 271.312 420.275 270.723 421.5 269.8Z" fill="#E1715B"/>
<path opacity="0.3" d="M415.14 258.45C415.114 258.452 415.088 258.445 415.067 258.43C415.045 258.416 415.029 258.395 415.02 258.37C414.44 256.68 413.77 255.02 413.02 253.37C413.006 253.339 413.005 253.305 413.016 253.273C413.027 253.241 413.05 253.215 413.08 253.2C413.111 253.188 413.145 253.188 413.176 253.199C413.207 253.21 413.233 253.232 413.25 253.26C413.97 254.88 414.64 256.56 415.25 258.26C415.26 258.291 415.259 258.324 415.246 258.354C415.233 258.383 415.209 258.407 415.18 258.42L415.14 258.45Z" fill="black"/>
<path opacity="0.3" d="M410.42 261.76C410.401 261.759 410.382 261.754 410.365 261.745C410.348 261.737 410.332 261.725 410.32 261.71C410.309 261.699 410.3 261.686 410.294 261.671C410.288 261.656 410.285 261.641 410.285 261.625C410.285 261.609 410.288 261.594 410.294 261.579C410.3 261.564 410.309 261.551 410.32 261.54C412.131 260.052 414.339 259.127 416.67 258.88C416.703 258.877 416.736 258.887 416.762 258.907C416.788 258.928 416.805 258.957 416.81 258.99C416.813 259.007 416.812 259.023 416.808 259.04C416.804 259.056 416.796 259.071 416.786 259.084C416.776 259.098 416.763 259.109 416.748 259.116C416.733 259.124 416.717 259.129 416.7 259.13C414.418 259.372 412.256 260.276 410.48 261.73C410.464 261.746 410.443 261.757 410.42 261.76Z" fill="black"/>
<path opacity="0.3" d="M417.86 268.1C417.836 268.099 417.812 268.091 417.793 268.077C417.773 268.063 417.758 268.043 417.75 268.02C417.378 267.116 417.335 266.11 417.63 265.178C417.924 264.246 418.536 263.447 419.36 262.92C419.371 262.909 419.384 262.9 419.399 262.894C419.414 262.888 419.429 262.885 419.445 262.885C419.461 262.885 419.476 262.888 419.491 262.894C419.506 262.9 419.519 262.909 419.53 262.92C419.551 262.945 419.563 262.977 419.563 263.01C419.563 263.043 419.551 263.075 419.53 263.1C418.76 263.599 418.184 264.347 417.9 265.22C417.627 266.099 417.666 267.046 418.01 267.9C418.018 267.931 418.016 267.963 418.003 267.992C417.99 268.021 417.968 268.045 417.94 268.06L417.86 268.1Z" fill="black"/>
<path d="M472.81 259.23C472.81 259.23 481.14 252.23 480.81 249.85C480.48 247.47 479.11 248.22 479.11 248.22C479.11 248.22 482 242.55 479.16 241.57C476.32 240.59 476.16 241.57 476.16 241.57C476.16 241.57 477.29 236.94 475.03 235.57C473.32 234.5 472.59 236.63 472.59 236.63C472.59 236.63 469.32 231.55 465.41 231.63C463.48 231.78 462.52 233.02 462.8 234.51C462.795 234.577 462.795 234.643 462.8 234.71C462.8 234.71 454.9 231.26 451.23 233.43C447.56 235.6 452.35 237.95 452.35 237.95C452.35 237.95 444.65 237.15 443.15 240.25C441.95 242.71 445.37 244.36 445.37 244.36C444.546 244.674 443.784 245.131 443.12 245.71C442.658 246.105 442.326 246.632 442.17 247.22C442.014 247.807 442.04 248.429 442.245 249.002C442.45 249.574 442.824 250.071 443.318 250.426C443.812 250.781 444.402 250.978 445.01 250.99H445.08C445.49 250.99 446.22 251.09 446.52 250.81C446.52 250.81 445.19 253.59 448.04 254.49C450.89 255.39 452.25 252.08 452.25 252.08L472.81 259.23Z" fill="#263238"/>
<path d="M470.19 277.34C470.19 277.34 469.73 273.34 472.58 263.57L472.07 263.32C472.46 261.96 472.88 260.7 473.28 259.61C473.282 259.593 473.282 259.577 473.28 259.56L459.9 267.78C460.21 270.91 459.07 276.94 458.4 279.48L461.86 285.35L470.19 277.34Z" fill="#E1715B"/>
<path opacity="0.2" d="M459.67 272.17L467.36 270.46C466.66 272.85 464.53 275.67 459.19 275.89C459.45 274.665 459.611 273.421 459.67 272.17Z" fill="black"/>
<path d="M450.74 244.69C449.16 247.77 448.59 254.57 453.51 253.16C458.43 251.75 453.5 239.38 450.74 244.69Z" fill="#263238"/>
<path d="M473.4 253.08C472.48 261.54 472.13 266.33 467.63 270.45C460.87 276.64 450.8 272.36 449.17 263.77C447.7 256.03 449.45 243.49 457.94 240.59C459.819 239.944 461.83 239.786 463.787 240.13C465.743 240.475 467.58 241.31 469.125 242.558C470.67 243.807 471.873 245.427 472.621 247.267C473.369 249.108 473.637 251.108 473.4 253.08Z" fill="#E1715B"/>
<path d="M461.14 255C461.14 255.86 460.61 256.54 460.04 256.51C459.47 256.48 459.04 255.75 459.04 254.88C459.04 254.01 459.58 253.33 460.14 253.36C460.7 253.39 461.18 254.09 461.14 255Z" fill="#263238"/>
<path d="M452.61 254.72C452.61 255.59 452.08 256.27 451.51 256.24C450.94 256.21 450.51 255.47 450.56 254.61C450.61 253.75 451.09 253.06 451.66 253.09C452.23 253.12 452.65 253.85 452.61 254.72Z" fill="#263238"/>
<path d="M455.41 254.37C455.41 254.37 452.41 258.56 451.49 260.27C452.65 261.42 454.75 261.02 454.75 261.02L455.41 254.37Z" fill="#FD504E"/>
<path d="M463.24 250.29C463.171 250.309 463.098 250.309 463.03 250.29C462.961 250.27 462.899 250.232 462.85 250.18C462.497 249.81 462.063 249.527 461.583 249.354C461.102 249.18 460.588 249.121 460.08 249.18C459.979 249.19 459.878 249.162 459.796 249.101C459.715 249.041 459.658 248.952 459.638 248.852C459.618 248.753 459.636 248.649 459.688 248.562C459.74 248.475 459.823 248.41 459.92 248.38C460.564 248.299 461.218 248.372 461.828 248.592C462.438 248.813 462.987 249.176 463.43 249.65C463.504 249.726 463.545 249.829 463.545 249.935C463.545 250.041 463.504 250.144 463.43 250.22C463.376 250.263 463.309 250.288 463.24 250.29Z" fill="#263238"/>
<path d="M448.99 250.8C448.921 250.776 448.86 250.734 448.812 250.679C448.764 250.623 448.731 250.557 448.717 250.485C448.703 250.413 448.708 250.339 448.731 250.27C448.754 250.201 448.795 250.139 448.85 250.09C449.341 249.673 449.926 249.38 450.554 249.237C451.183 249.094 451.837 249.106 452.46 249.27C452.561 249.304 452.645 249.377 452.694 249.472C452.742 249.567 452.752 249.678 452.72 249.78C452.704 249.831 452.678 249.878 452.644 249.919C452.609 249.96 452.567 249.993 452.52 250.017C452.472 250.042 452.42 250.056 452.367 250.06C452.314 250.064 452.261 250.057 452.21 250.04C451.716 249.916 451.2 249.914 450.705 250.034C450.21 250.155 449.752 250.393 449.37 250.73C449.317 250.772 449.255 250.8 449.189 250.813C449.122 250.825 449.054 250.82 448.99 250.8Z" fill="#263238"/>
<path d="M455.9 263.41C457.27 262.98 459.78 262.06 461 260.78C461.158 261.076 461.276 261.392 461.35 261.72C461.491 262.295 461.491 262.895 461.35 263.47C461.05 264.64 460.02 265.91 457.27 266.67H457.21C457.21 266.67 455.72 267.05 454.97 263.67C454.96 263.68 455.33 263.59 455.9 263.41Z" fill="#263238"/>
<path d="M455.9 263.41L456.43 264.32C459.02 263.6 460.75 262.74 461.35 261.72C461.276 261.392 461.158 261.076 461 260.78C459.78 262.06 457.27 263 455.9 263.41Z" fill="white"/>
<path d="M457.28 266.67C460.03 265.91 461.06 264.67 461.36 263.47C460.318 263.781 459.339 264.276 458.47 264.93C457.903 265.373 457.487 265.981 457.28 266.67Z" fill="#FB504E"/>
<path d="M470.86 259.63C470.089 259.299 469.43 258.754 468.96 258.06C468.648 257.347 468.55 256.558 468.68 255.79C468.748 254.984 468.861 254.183 469.02 253.39C468.27 253.77 467.35 253.17 466.94 252.39C466.421 251.23 466.25 249.945 466.45 248.69C465.97 248.802 465.469 248.784 464.998 248.638C464.527 248.492 464.103 248.224 463.77 247.86C463.457 247.478 463.286 246.999 463.286 246.505C463.286 246.011 463.457 245.532 463.77 245.15C460.635 245.569 457.449 245.372 454.39 244.57C454.6 244.96 454.39 245.43 454.08 245.78C452.973 247.212 451.379 248.187 449.6 248.52C449.34 248.57 449.02 248.58 448.87 248.36C448.81 248.232 448.789 248.09 448.81 247.95C448.898 247.091 449.154 246.257 449.564 245.497C449.974 244.737 450.53 244.065 451.2 243.52C452.543 242.441 454.062 241.602 455.69 241.04C458.34 239.96 461.139 239.286 463.99 239.04C466.855 238.804 469.732 239.303 472.35 240.49C472.925 240.732 473.441 241.097 473.86 241.56C474.215 242.041 474.47 242.589 474.61 243.17C475.66 246.63 476.06 250.254 475.79 253.86" fill="#263238"/>
<path d="M476.42 260.31C476.049 261.299 475.487 262.205 474.764 262.976C474.042 263.747 473.173 264.367 472.21 264.8C469.62 265.94 467.9 263.71 468.27 261.05C468.6 258.65 470.34 255.17 473.11 255.16C475.88 255.15 477.32 257.85 476.42 260.31Z" fill="#E1715B"/>
<path opacity="0.2" d="M470.6 260.48C470.567 260.475 470.535 260.464 470.507 260.446C470.478 260.429 470.453 260.406 470.434 260.379C470.414 260.352 470.4 260.322 470.393 260.289C470.385 260.257 470.384 260.223 470.39 260.19C470.517 259.421 470.84 258.697 471.33 258.09C471.736 257.546 472.32 257.16 472.98 257C473.33 256.926 473.694 256.957 474.026 257.088C474.359 257.22 474.646 257.447 474.85 257.74C474.882 257.798 474.891 257.866 474.877 257.93C474.862 257.995 474.824 258.052 474.77 258.09C474.711 258.123 474.642 258.133 474.577 258.116C474.512 258.099 474.455 258.057 474.42 258C474.27 257.794 474.064 257.636 473.826 257.545C473.588 257.455 473.329 257.436 473.08 257.49C472.535 257.628 472.055 257.949 471.72 258.4C471.288 258.942 471.003 259.586 470.89 260.27C470.885 260.303 470.874 260.335 470.856 260.363C470.839 260.392 470.816 260.417 470.789 260.436C470.762 260.456 470.732 260.47 470.699 260.477C470.667 260.485 470.633 260.486 470.6 260.48Z" fill="black"/>
<path d="M457.77 291.15C457.77 291.15 432.9 298.42 423.87 298.74C414.84 299.06 394.87 294.84 394.87 294.84L396 285.66L425.34 287.16L457.24 276.51L457.77 291.15Z" fill="#E1715B"/>
<path d="M448.88 296.76L453.77 276.55L466.19 274.38C466.74 274.3 476.82 273.47 479.85 284.54L480.52 293.33L448.88 296.76Z" fill="#263238"/>
<path d="M460.58 294.74C459.89 294.74 440.58 298.27 440.58 298.27L436.58 282.53C442.203 280.209 447.952 278.206 453.8 276.53C463 274.04 471.62 273.27 473.6 277.53C477.33 285.71 460.58 294.74 460.58 294.74Z" fill="#263238"/>
<path opacity="0.3" d="M420.5 287.06L425.33 287.31L437.88 283.01C437.88 283.01 440.48 281.89 439.82 282.12C439.16 282.35 433.96 281.8 433.61 281.86C433.26 281.92 420.5 287.06 420.5 287.06Z" fill="black"/>
<path d="M386.35 281.49C385.78 281.83 379.13 288.7 379.13 288.7L380.43 297.22L388.79 288.59L386.35 281.49Z" fill="#263238"/>
<path d="M396.36 299.26C395.65 299.607 394.831 299.66 394.082 299.408C393.333 299.155 392.714 298.617 392.36 297.91L379.12 271C378.773 270.29 378.72 269.471 378.972 268.722C379.225 267.973 379.763 267.354 380.47 267C381.18 266.653 381.999 266.6 382.748 266.852C383.497 267.105 384.116 267.643 384.47 268.35L397.74 295.23C397.916 295.585 398.019 295.971 398.045 296.366C398.071 296.761 398.018 297.158 397.889 297.532C397.761 297.907 397.56 298.253 397.297 298.549C397.035 298.846 396.716 299.087 396.36 299.26Z" fill="#263238"/>
<path d="M405.91 286.4L394.99 284.93L391.84 281.11C391.84 281.11 386.29 280.61 385.1 281.6C383.91 282.59 382.71 285.74 382.71 285.74C382.71 285.74 381.26 288.33 383.71 289.68C383.71 289.68 382.14 291.98 384.94 293.6C384.94 293.6 382.88 294.77 385.83 295.98C386.964 296.432 388.178 296.653 389.399 296.629C390.62 296.605 391.824 296.337 392.94 295.84C394.575 295.441 396.264 295.316 397.94 295.47L407.87 297.22L405.91 286.4Z" fill="#E1715B"/>
</g>
<defs>
<clipPath id="clip0_1_9475">
<rect width="750" height="500" fill="white" transform="translate(0.5)"/>
</clipPath>
</defs>
</svg>
